<svg width="138" height="39" viewBox="0 0 138 39" fill="none" xmlns="http://www.w3.org/2000/svg">
<path d="M0.141 14L2.589 1.04H5.853L8.269 14H5.629L5.197 11.264H3.293L2.845 14H0.141ZM3.549 9.552H4.925L4.237 4.496L3.549 9.552ZM10.1855 16.8V11.952H10.5535C10.7988 11.8773 11.0228 11.7493 11.2255 11.568C11.4388 11.376 11.6308 11.12 11.8015 10.8C11.9722 10.48 12.1268 10.08 12.2655 9.6C12.4042 9.12 12.5215 8.54933 12.6175 7.888C12.7135 7.216 12.7935 6.44267 12.8575 5.568L13.2095 1.04H19.2415V11.952H20.6975V16.8H18.8095L18.6655 14H12.3135L12.1535 16.8H10.1855ZM13.2575 11.952H16.5695V3.072H15.3695L15.2255 5.856C15.1722 6.77333 15.0922 7.552 14.9855 8.192C14.8895 8.832 14.7722 9.36533 14.6335 9.792C14.5055 10.208 14.3668 10.5493 14.2175 10.816C14.0682 11.0827 13.9082 11.3013 13.7375 11.472C13.5775 11.6427 13.4175 11.8027 13.2575 11.952ZM23.1832 14L23.4072 1.04H26.4792L27.9033 8.576L29.4392 1.04H32.3993L32.6233 14H30.5913L30.3512 5.376L28.8472 14H27.0392L25.4392 5.312L25.2472 14H23.1832ZM35.8249 14V1.04H38.0809V8.464L41.3929 1.04H43.2489V14H40.9449V6.448L37.5689 14H35.8249ZM46.5424 14V1.04H49.4064V6.288H51.4064V1.04H54.2864V14H51.4064V8.336H49.4064V14H46.5424ZM57.588 14V1.04H59.844V8.464L63.156 1.04H65.012V14H62.708V6.448L59.332 14H57.588ZM71.9695 14.192C70.9882 14.192 70.2095 14.016 69.6335 13.664C69.0682 13.3013 68.6682 12.8 68.4335 12.16C68.1988 11.5093 68.0815 10.7467 68.0815 9.872V5.2C68.0815 4.304 68.1988 3.536 68.4335 2.896C68.6682 2.24533 69.0682 1.744 69.6335 1.392C70.2095 1.04 70.9882 0.863999 71.9695 0.863999C72.9295 0.863999 73.6762 1.024 74.2095 1.344C74.7535 1.65333 75.1375 2.09067 75.3615 2.656C75.5855 3.22133 75.6975 3.872 75.6975 4.608V5.728H72.8975V4.432C72.8975 4.176 72.8815 3.93067 72.8495 3.696C72.8282 3.46133 72.7535 3.26933 72.6255 3.12C72.4975 2.96 72.2788 2.88 71.9695 2.88C71.6708 2.88 71.4468 2.96 71.2975 3.12C71.1588 3.28 71.0682 3.48267 71.0255 3.728C70.9935 3.96267 70.9775 4.21333 70.9775 4.48V10.576C70.9775 10.864 70.9988 11.1307 71.0415 11.376C71.0948 11.6107 71.1908 11.8027 71.3295 11.952C71.4788 12.0907 71.6922 12.16 71.9695 12.16C72.2682 12.16 72.4815 12.0853 72.6095 11.936C72.7375 11.776 72.8175 11.5733 72.8495 11.328C72.8815 11.0827 72.8975 10.832 72.8975 10.576V9.216H75.6975V10.336C75.6975 11.072 75.5855 11.7333 75.3615 12.32C75.1482 12.896 74.7695 13.3547 74.2255 13.696C73.6922 14.0267 72.9402 14.192 71.9695 14.192ZM79.7211 14V3.168H77.7691V1.04H84.5371V3.168H82.6011V14H79.7211ZM86.9581 14V1.04H91.3101C92.0888 1.04 92.7288 1.18933 93.2301 1.488C93.7315 1.776 94.1048 2.20267 94.3501 2.768C94.5955 3.32267 94.7181 4 94.7181 4.8C94.7181 5.80267 94.5528 6.57067 94.2221 7.104C93.8915 7.62667 93.4435 7.98933 92.8781 8.192C92.3128 8.39467 91.6781 8.496 90.9741 8.496H89.8221V14H86.9581ZM89.8221 6.496H90.7821C91.1341 6.496 91.4008 6.432 91.5821 6.304C91.7635 6.176 91.8808 5.984 91.9341 5.728C91.9981 5.472 92.0301 5.14667 92.0301 4.752C92.0301 4.42133 92.0035 4.13333 91.9501 3.888C91.9075 3.632 91.7955 3.42933 91.6141 3.28C91.4328 3.13067 91.1501 3.056 90.7661 3.056H89.8221V6.496ZM96.4891 14L98.9371 1.04H102.201L104.617 14H101.977L101.545 11.264H99.6411L99.1931 14H96.4891ZM99.8971 9.552H101.273L100.585 4.496L99.8971 9.552ZM114.822 16.8L114.454 14H107.254V1.04H110.118V12.064H112.294V1.04H115.158V12.064H116.918V16.8H114.822ZM119.502 14V1.04H121.758V8.464L125.07 1.04H126.926V14H124.622V6.448L121.246 14H119.502ZM129.372 14L131.836 8.24C131.345 7.94133 130.94 7.504 130.62 6.928C130.311 6.352 130.156 5.68 130.156 4.912C130.156 3.90933 130.332 3.13067 130.684 2.576C131.036 2.01067 131.537 1.616 132.188 1.392C132.849 1.15733 133.639 1.04 134.556 1.04H137.884V14H135.036V8.88H134.524C134.513 8.88 134.487 8.88 134.444 8.88C134.401 8.88 134.369 8.88 134.348 8.88L132.46 14H129.372ZM134.62 6.864H135.036V3.008H134.588C134.001 3.008 133.559 3.17333 133.26 3.504C132.972 3.824 132.828 4.29867 132.828 4.928C132.828 5.48267 132.956 5.94667 133.212 6.32C133.468 6.68267 133.937 6.864 134.62 6.864ZM35.0124 38V25.04H41.0124V27.168H37.8764V38H35.0124ZM43.4266 38V35.536H45.8906V38H43.4266ZM57.9226 38.192C56.952 38.192 56.184 38.0213 55.6186 37.68C55.0533 37.3387 54.648 36.848 54.4026 36.208C54.1573 35.568 54.0346 34.8053 54.0346 33.92V29.104C54.0346 28.208 54.1573 27.4453 54.4026 26.816C54.648 26.1867 55.0533 25.7067 55.6186 25.376C56.184 25.0347 56.952 24.864 57.9226 24.864C58.904 24.864 59.6773 25.0347 60.2426 25.376C60.8186 25.7067 61.2293 26.1867 61.4746 26.816C61.72 27.4453 61.8426 28.208 61.8426 29.104V33.92C61.8426 34.8053 61.72 35.568 61.4746 36.208C61.2293 36.848 60.8186 37.3387 60.2426 37.68C59.6773 38.0213 58.904 38.192 57.9226 38.192ZM57.9226 36.16C58.2213 36.16 58.44 36.0853 58.5786 35.936C58.7173 35.7867 58.808 35.5947 58.8506 35.36C58.8933 35.1253 58.9146 34.8853 58.9146 34.64V28.4C58.9146 28.144 58.8933 27.904 58.8506 27.68C58.808 27.4453 58.7173 27.2533 58.5786 27.104C58.44 26.9547 58.2213 26.88 57.9226 26.88C57.6453 26.88 57.4373 26.9547 57.2986 27.104C57.16 27.2533 57.0693 27.4453 57.0266 27.68C56.984 27.904 56.9626 28.144 56.9626 28.4V34.64C56.9626 34.8853 56.9786 35.1253 57.0106 35.36C57.0533 35.5947 57.1386 35.7867 57.2666 35.936C57.4053 36.0853 57.624 36.16 57.9226 36.16ZM64.8176 38L65.0416 25.04H68.1136L69.5376 32.576L71.0736 25.04H74.0336L74.2576 38H72.2256L71.9856 29.376L70.4816 38H68.6736L67.0736 29.312L66.8816 38H64.8176ZM81.1232 38.192C80.1419 38.192 79.3632 38.016 78.7872 37.664C78.2219 37.3013 77.8219 36.8 77.5872 36.16C77.3526 35.5093 77.2352 34.7467 77.2352 33.872V29.2C77.2352 28.304 77.3526 27.536 77.5872 26.896C77.8219 26.2453 78.2219 25.744 78.7872 25.392C79.3632 25.04 80.1419 24.864 81.1232 24.864C82.0832 24.864 82.8299 25.024 83.3632 25.344C83.9072 25.6533 84.2912 26.0907 84.5152 26.656C84.7392 27.2213 84.8512 27.872 84.8512 28.608V29.728H82.0512V28.432C82.0512 28.176 82.0352 27.9307 82.0032 27.696C81.9819 27.4613 81.9072 27.2693 81.7792 27.12C81.6512 26.96 81.4326 26.88 81.1232 26.88C80.8246 26.88 80.6006 26.96 80.4512 27.12C80.3126 27.28 80.2219 27.4827 80.1792 27.728C80.1472 27.9627 80.1312 28.2133 80.1312 28.48V34.576C80.1312 34.864 80.1526 35.1307 80.1952 35.376C80.2486 35.6107 80.3446 35.8027 80.4832 35.952C80.6326 36.0907 80.8459 36.16 81.1232 36.16C81.4219 36.16 81.6352 36.0853 81.7632 35.936C81.8912 35.776 81.9712 35.5733 82.0032 35.328C82.0352 35.0827 82.0512 34.832 82.0512 34.576V33.216H84.8512V34.336C84.8512 35.072 84.7392 35.7333 84.5152 36.32C84.3019 36.896 83.9232 37.3547 83.3792 37.696C82.8459 38.0267 82.0939 38.192 81.1232 38.192ZM87.7549 38V25.04H90.6189V30.176H90.9069L92.8109 25.04H95.6589L93.2909 31.12L95.7389 38H92.7949L90.9069 32.352H90.6189V38H87.7549ZM97.5191 38L99.9671 25.04H103.231L105.647 38H103.007L102.575 35.264H100.671L100.223 38H97.5191ZM100.927 33.552H102.303L101.615 28.496L100.927 33.552Z" fill="#C0BDC8"/>
</svg>
