<svg width="40" height="41" viewBox="0 0 40 41" fill="none" xmlns="http://www.w3.org/2000/svg">
<rect y="0.00146484" width="40" height="40" rx="20" fill="white" fill-opacity="0.08"/>
<path d="M20.9825 27.0015C13.466 27.0015 9.17864 21.7462 9 13.0015H12.7651C12.8888 19.4199 15.6646 22.1386 17.8632 22.6992V13.0015H21.4085V18.537C23.5796 18.2988 25.8607 15.7762 26.6302 13.0015H30.1755C29.8855 14.4405 29.3075 15.8031 28.4776 17.004C27.6477 18.2048 26.5837 19.2181 25.3523 19.9804C26.7269 20.677 27.941 21.663 28.9145 22.8732C29.888 24.0835 30.5988 25.4905 31 27.0015H27.0974C26.7373 25.6891 26.0054 24.5143 24.9934 23.6243C23.9814 22.7343 22.7343 22.1687 21.4085 21.9985V27.0015H20.9825V27.0015Z" fill="#C0BDC8"/>
</svg>


