<svg width="40" height="40" viewBox="0 0 40 40" fill="none" xmlns="http://www.w3.org/2000/svg">
<path d="M39.9578 13.2823C39.4947 8.78611 35.7473 5.22297 31.2421 5.01088C25.9369 4.75642 21.5579 8.99819 21.5579 14.3003C21.5579 18.2027 23.958 21.5112 27.3262 22.911L22.1473 33.6002C21.8525 34.2364 22.3156 35 22.9894 35H26.5261C26.821 35 27.1156 34.8728 27.2839 34.6183L38.3996 19.5177C39.5789 17.736 40.1683 15.5727 39.9581 13.282L39.9578 13.2823Z" fill="#A310FD"/>
<path d="M9.6842 5.01088C4.37902 4.75642 0 8.99819 0 14.3003C0 18.2027 2.40015 21.5112 5.76834 22.911L0.589473 33.6002C0.294593 34.2364 0.757766 35 1.4315 35H4.96826C5.26314 35 5.55772 34.8728 5.72601 34.6183L16.8418 19.5177C18.0207 17.7785 18.6102 15.6153 18.3576 13.3246C17.8947 8.7858 14.1473 5.22288 9.6839 5.0108L9.6842 5.01088Z" fill="#A310FD"/>
</svg>
