<svg width="40" height="40" viewBox="0 0 40 40" fill="none" xmlns="http://www.w3.org/2000/svg">
<path d="M39.7732 10.6656C39.5018 8.6446 38.8968 7.26252 37.821 6.18251C36.7451 5.1025 35.3556 4.49753 33.3354 4.22774C31.6479 4.00098 29.5368 4.00098 26.8645 4.00098H13.1355C10.4632 4.00098 8.35206 4.00098 6.6646 4.22774C4.64445 4.49753 3.26154 5.1025 2.18153 6.18251C1.10152 7.26252 0.496555 8.64542 0.22676 10.6656C0 12.353 0 14.4642 0 17.1365V23.1415C0 25.8138 0 27.925 0.22676 29.6125C0.496555 31.6326 1.10152 33.0147 2.18153 34.0955C3.26154 35.1764 4.64445 35.7805 6.6646 36.0503C8.35206 36.2771 10.4632 36.2771 13.1355 36.2771H26.8645C29.5368 36.2771 31.6479 36.2771 33.3354 36.0503C35.3556 35.7789 36.7385 35.1755 37.8185 34.0955C38.8985 33.0155 39.5018 31.6326 39.7732 29.6125C40 27.925 40 25.8138 40 23.1415V17.1365C40 14.4642 40 12.353 39.7732 10.6656ZM31.5958 12.3514C28.5536 14.379 26.3547 15.8446 24.486 16.8204C22.6835 17.7622 21.3279 18.171 19.9532 18.1876C18.5786 18.2041 17.2123 17.8292 15.3882 16.9321C13.4964 16.0011 11.2627 14.5942 8.16999 12.6402L3.76637 9.85867C3.94182 9.27936 4.18017 8.86556 4.52362 8.52294L4.55176 8.4948C5.09052 7.97342 5.85852 7.67631 7.1057 7.50831C8.5722 7.31134 10.5311 7.31134 13.2415 7.31134H26.7594C29.4705 7.31134 31.4295 7.31134 32.896 7.50831C34.1655 7.67962 34.9384 7.98252 35.4789 8.52294C35.7234 8.76909 35.9199 9.05874 36.0582 9.37701L31.5958 12.3514ZM19.993 21.4988C21.8964 21.4756 23.756 20.9376 26.0187 19.7558C28.0463 18.6957 30.3917 17.1316 33.3619 15.152L36.6416 12.9655C36.6905 14.1572 36.6905 15.598 36.6905 17.2424V23.0356C36.6905 25.7451 36.6905 27.7024 36.4935 29.1714C36.3222 30.4417 36.0185 31.2147 35.478 31.7551C34.9376 32.2955 34.1655 32.5984 32.8951 32.7697C31.4262 32.9667 29.4689 32.9667 26.7594 32.9667H13.2415C10.5319 32.9667 8.57385 32.9667 7.10488 32.7697C5.83535 32.5984 5.06238 32.2955 4.52196 31.7551C3.98154 31.2147 3.67865 30.4417 3.50733 29.1714C3.31037 27.7024 3.31037 25.7451 3.31037 23.0356V17.2424C3.31037 15.8844 3.31037 14.5942 3.34099 13.5059L6.47756 15.4863C9.49413 17.3898 11.8776 18.8976 13.9259 19.9048C16.2208 21.0312 18.0878 21.5219 19.993 21.4988Z" fill="#A310FD"/>
</svg>
