<svg width="32" height="32" viewBox="0 0 32 32" fill="none" xmlns="http://www.w3.org/2000/svg">
<g clip-path="url(#clip0_401_23)">
<path d="M18.3602 13.7276L31.4167 0.0781842H24.6417L12.7704 12.7604L12.1082 20.1152L14.5914 17.5351L25.3147 31.821H32L18.3602 13.7276Z" fill="white"/>
<path d="M9.46872 14.1287C7.65412 14.6895 5.70299 14.5947 3.95 13.8605C3.71019 13.7599 3.47451 13.6468 3.24295 13.5212L4.30894 25.352L4.54102 25.5866C4.75451 25.7818 4.99313 25.9469 5.25039 26.0775C5.5454 26.2224 5.85729 26.329 6.17868 26.395V32H7.97416V26.3934C8.29546 26.3271 8.60731 26.2204 8.90246 26.076C9.10208 25.9738 9.29079 25.8512 9.46562 25.7101C9.55923 25.6319 9.61183 25.5842 9.61183 25.5842L9.8439 25.3497L10.8171 14.5188L10.9091 13.5259C10.4495 13.7736 9.96709 13.9755 9.46872 14.1287ZM8.12346 24.4388C8.10644 24.4458 8.12346 24.4427 8.1018 24.4513C7.78208 24.6074 7.43025 24.6846 7.07526 24.6765C6.72027 24.6846 6.36845 24.6074 6.04872 24.4513C6.03016 24.4412 6.04872 24.4458 6.02861 24.438L5.86074 22.5616C6.66785 22.6669 7.485 22.6669 8.2921 22.5616L8.12346 24.4388Z" fill="white"/>
<path d="M13.3536 6.34543C13.3537 7.17851 13.1914 8.00346 12.876 8.77315C12.5606 9.54284 12.0983 10.2422 11.5155 10.8313C10.9326 11.4204 10.2407 11.8878 9.4792 12.2066C8.71768 12.5255 7.90148 12.6896 7.0772 12.6897C6.25291 12.6897 5.43669 12.5257 4.67513 12.2069C3.91357 11.8882 3.22159 11.4209 2.6387 10.8319C2.05581 10.2428 1.59342 9.54352 1.27793 8.77387C0.962444 8.00422 0.800039 7.1793 0.799988 6.34621C1.73332 7.1248 2.80137 7.72179 3.95 8.10692C5.73263 8.70369 7.64605 8.77797 9.46872 8.32114C10.8938 7.96507 12.2215 7.28986 13.3536 6.34543Z" fill="white"/>
<path d="M12.9823 4.20318C12.9166 4.27511 12.857 4.34938 12.7881 4.41897C11.8624 5.3602 10.7228 6.0581 9.46872 6.45176C7.65443 7.01934 5.70019 6.92188 3.95 6.17655C2.98382 5.76572 2.10599 5.16876 1.36547 4.41897C1.29663 4.34938 1.23706 4.27433 1.17131 4.20318C1.47968 3.31946 1.97946 2.51651 2.63414 1.85296C3.79405 0.681511 5.36209 0.0162699 7.00177 0H7.15649C7.95116 0.00902247 8.73699 0.169776 9.47259 0.473796C10.2854 0.809694 11.0187 1.31565 11.6243 1.95842C12.2299 2.60118 12.694 3.3662 12.9862 4.20318H12.9823Z" fill="white"/>
</g>
<defs>
<clipPath id="clip0_401_23">
<rect width="32" height="32" fill="white"/>
</clipPath>
</defs>
</svg>
