<svg width="40" height="40" viewBox="0 0 40 40" fill="none" xmlns="http://www.w3.org/2000/svg">
<g clip-path="url(#clip0_403_556)">
<path d="M38.5013 28.2041L33.6821 23.3978C32.7304 22.4131 31.5803 21.8966 30.3613 21.8966C29.1504 21.8966 27.9922 22.4131 27.0121 23.3857L24.5013 25.8877C24.3758 25.8232 24.2543 25.7626 24.1409 25.7061C23.8453 25.5608 23.5618 25.4156 23.3188 25.2622C20.7715 23.6521 18.451 21.5415 16.2196 18.8175C15.2355 17.5786 14.5551 16.5375 14.0611 15.5124C14.6969 14.9192 15.2963 14.3139 15.8632 13.7328C16.1022 13.4907 16.3533 13.2405 16.5962 12.9983C17.6005 11.9976 18.1311 10.8313 18.1311 9.62869C18.1311 8.41806 17.6006 7.25178 16.5962 6.25905L14.2029 3.87409C13.9315 3.60371 13.6724 3.3414 13.4051 3.06297L13.393 3.05086C12.8705 2.51414 12.3076 1.94516 11.7447 1.42456C10.789 0.492341 9.64694 0 8.44011 0C7.24135 0 6.08724 0.49637 5.10316 1.4326L2.08612 4.43904C0.867144 5.64163 0.178678 7.11053 0.0369418 8.80546C-0.125048 10.8232 0.243482 12.954 1.1952 15.5004C2.62878 19.3825 4.78733 22.9741 7.98661 26.8039C11.8622 31.4205 16.5434 35.0723 21.8937 37.6594L21.8977 37.6635C23.9671 38.64 26.7372 39.7862 29.8028 39.9839H29.8392C30.0174 39.9919 30.1997 40 30.3941 40C32.593 40 34.3668 39.2413 35.8126 37.6796C35.8369 37.6514 35.8693 37.6191 35.9017 37.5747C36.3067 37.0945 36.7683 36.6425 37.2624 36.1703L37.3758 36.0614C37.8375 35.6215 38.2019 35.2583 38.5259 34.9234C39.4938 33.9185 40.0041 32.7523 40 31.5457C40 30.335 39.4816 29.1809 38.5016 28.2043L38.5013 28.2041ZM3.37825 9.08829C3.45925 8.17223 3.80347 7.44184 4.45549 6.7921L7.44017 3.8179C7.7682 3.50314 8.11243 3.33364 8.43232 3.33364C8.8211 3.33364 9.16533 3.59999 9.38405 3.82194L9.40834 3.84615C9.86192 4.26585 10.2993 4.70974 10.761 5.17788L10.9716 5.39176C11.1093 5.53301 11.251 5.67424 11.3927 5.81953C11.5304 5.95673 11.6681 6.09797 11.8058 6.23922L14.2073 8.6323C14.4584 8.8825 14.7581 9.26183 14.7581 9.64118C14.7581 10.0205 14.4584 10.3998 14.2073 10.6501C14.0818 10.7752 13.9563 10.9003 13.8307 11.0294C13.7092 11.1545 13.5837 11.2796 13.4581 11.4047L13.2881 11.5742C12.6117 12.2562 11.9678 12.9019 11.2753 13.5193L11.2065 13.5879C10.1576 14.6331 10.518 15.7146 10.6355 16.0697C10.6436 16.098 10.6517 16.1182 10.6598 16.1424L10.676 16.1827C11.332 17.7485 12.231 19.2094 13.5918 20.9163L13.5958 20.9204C16.0459 23.9309 18.6297 26.2755 21.5009 28.0955C21.8168 28.3013 22.1367 28.4627 22.4486 28.6161C22.5052 28.6443 22.566 28.6726 22.6227 28.7048L22.6267 28.7089C22.9224 28.8542 23.2059 28.9994 23.4489 29.1528L23.5218 29.1931C23.5461 29.2052 23.5704 29.2214 23.5947 29.2335C23.951 29.4151 24.3196 29.5079 24.6881 29.5079C25.3118 29.5079 25.8787 29.2577 26.3728 28.7614L29.3777 25.767C29.6126 25.533 29.969 25.2586 30.3577 25.2586C30.7546 25.2586 31.0988 25.5652 31.2729 25.7509L31.281 25.759L36.1326 30.5854C36.8292 31.2795 36.8171 31.8929 36.1003 32.6354L36.0922 32.6435C35.752 33.0067 35.3916 33.3537 35.0513 33.6806L34.9542 33.7735C34.4115 34.2981 33.8526 34.8389 33.3302 35.4603C32.5364 36.3077 31.6333 36.683 30.4022 36.683C30.2888 36.683 30.1592 36.6749 30.0297 36.6669C27.5148 36.5054 25.1457 35.5167 23.3598 34.6693C18.4433 32.2965 14.1388 28.9389 10.5709 24.6852C7.62673 21.1541 5.6505 17.8733 4.34244 14.358C3.56896 12.2838 3.25712 10.605 3.37857 9.08765L3.37825 9.08829Z" fill="#A310FD"/>
</g>
<defs>
<clipPath id="clip0_403_556">
<rect width="40" height="40" fill="white"/>
</clipPath>
</defs>
</svg>
