<svg width="140" height="140" viewBox="0 0 140 140" fill="none" xmlns="http://www.w3.org/2000/svg">
<g filter="url(#filter0_f_401_215)">
<circle cx="70" cy="70" r="50" fill="url(#paint0_linear_401_215)" fill-opacity="0.5"/>
</g>
<circle cx="70" cy="70" r="50" fill="url(#paint1_linear_401_215)"/>
<g clip-path="url(#clip0_401_215)">
<path d="M83.4454 55.0538C83.4454 51.7903 80.7876 49.1344 77.5191 49.1344C74.2506 49.1344 71.5887 51.7903 71.5887 55.0538C71.5887 58.3172 74.2505 60.9732 77.5191 60.9732C80.7872 60.9732 83.4454 58.3191 83.4454 55.0538ZM73.1917 55.0538C73.1917 52.6718 75.1352 50.7331 77.5191 50.7331C79.9031 50.7331 81.8442 52.6718 81.8442 55.0538C81.8442 57.4358 79.9025 59.3763 77.5191 59.3763C75.1352 59.3763 73.1917 57.438 73.1917 55.0538Z" fill="white"/>
<path d="M92.1159 63.8707L86.6917 60.5595C87.5285 58.649 88.0808 56.8843 88.0808 55.5474C88.0808 49.7319 83.3433 45 77.5188 45C71.6947 44.9996 66.9568 49.732 66.9568 55.5474C66.9568 57.5458 68.1836 60.4934 69.7709 63.4772L59.5672 57.246C59.3089 57.0881 58.9886 57.0881 58.7304 57.246L47.8824 63.8707C47.6461 64.0166 47.5 64.2744 47.5 64.5523V94.1984C47.5 94.4884 47.6559 94.7538 47.9083 94.8961C48.1626 95.0402 48.4708 95.0321 48.717 94.8822L59.1508 88.5114L69.5805 94.8822C69.8387 95.0379 70.159 95.0379 70.4173 94.8822L80.847 88.5114L91.2808 94.8822C91.409 94.9603 91.5551 95 91.699 95C91.8312 95 91.9692 94.9661 92.0894 94.8983C92.3436 94.7564 92.4996 94.4906 92.4996 94.2006L92.5 64.5522C92.5 64.2743 92.3523 64.0166 92.1159 63.8707ZM58.3488 87.1242L49.0999 92.7715V65.0016L58.3488 59.352V87.1242ZM69.1972 92.7737L59.9523 87.1242L59.9518 59.352L69.1967 65.0016L69.1972 92.7737ZM77.5191 46.5979C82.4608 46.5979 86.4816 50.6126 86.4816 55.5466C86.4816 59.4416 80.5174 68.5956 77.5191 72.7923C74.5209 68.5974 68.5543 59.4429 68.5543 55.5466C68.5565 50.613 72.5796 46.5979 77.5191 46.5979ZM70.8002 92.7737V65.3419C73.4902 70.022 76.6466 74.3209 76.8749 74.6305C77.0268 74.8343 77.2653 74.9561 77.5195 74.9561C77.7737 74.9561 78.0141 74.8343 78.1642 74.6305C78.2701 74.4864 79.0166 73.4675 80.0455 71.9647V87.1241L70.8002 92.7737ZM90.8977 92.7737L81.6487 87.1265V69.5644C83.1119 67.3105 84.7529 64.6005 86.0159 62.0205L90.8978 65.002L90.8977 92.7737Z" fill="white"/>
</g>
<defs>
<filter id="filter0_f_401_215" x="0" y="0" width="140" height="140" filterUnits="userSpaceOnUse" color-interpolation-filters="sRGB">
<feFlood flood-opacity="0" result="BackgroundImageFix"/>
<feBlend mode="normal" in="SourceGraphic" in2="BackgroundImageFix" result="shape"/>
<feGaussianBlur stdDeviation="10" result="effect1_foregroundBlur_401_215"/>
</filter>
<linearGradient id="paint0_linear_401_215" x1="20" y1="120" x2="120" y2="20" gradientUnits="userSpaceOnUse">
<stop stop-color="#A310FD"/>
<stop offset="0.5" stop-color="#FF3A72"/>
<stop offset="1" stop-color="#FF6839"/>
</linearGradient>
<linearGradient id="paint1_linear_401_215" x1="20" y1="120" x2="120" y2="20" gradientUnits="userSpaceOnUse">
<stop stop-color="#A310FD"/>
<stop offset="0.5" stop-color="#FF3A72"/>
<stop offset="1" stop-color="#FF6839"/>
</linearGradient>
<clipPath id="clip0_401_215">
<rect width="50" height="50" fill="white" transform="translate(45 45)"/>
</clipPath>
</defs>
</svg>
