<svg width="140" height="140" viewBox="0 0 140 140" fill="none" xmlns="http://www.w3.org/2000/svg">
<g filter="url(#filter0_f_401_224)">
<circle cx="70" cy="70" r="50" fill="url(#paint0_linear_401_224)" fill-opacity="0.5"/>
</g>
<circle cx="70" cy="70" r="50" fill="url(#paint1_linear_401_224)"/>
<path d="M93.125 68.2227C93.125 68.5672 92.8483 68.8451 92.5052 68.8451H86.9171C86.574 68.8451 86.2973 68.5672 86.2973 68.2227C86.2973 67.8782 86.574 67.6003 86.9171 67.6003H92.5052C92.8429 67.5953 93.125 67.8786 93.125 68.2227ZM69.9976 51.8612C70.3407 51.8612 70.6174 51.5834 70.6174 51.2389V45.6224C70.6228 45.2779 70.3407 45 69.9976 45C69.6545 45 69.3778 45.2779 69.3778 45.6224V51.2335C69.3778 51.5835 69.6545 51.8613 69.9976 51.8613V51.8612ZM57.5981 56.6503C57.7196 56.7724 57.8802 56.8336 58.0407 56.8336C58.2013 56.8336 58.3615 56.7724 58.4834 56.6503C58.727 56.4058 58.727 56.0113 58.4834 55.7672L54.533 51.8004C54.2894 51.5559 53.8965 51.5559 53.6534 51.8004C53.4099 52.0449 53.4099 52.4394 53.6534 52.6836L57.5981 56.6503ZM53.7027 68.222C53.7027 67.8775 53.426 67.5996 53.0829 67.5996L47.4948 67.6C47.1517 67.6 46.875 67.8779 46.875 68.2224C46.875 68.5669 47.1517 68.8448 47.4948 68.8448H53.0829C53.4264 68.8444 53.7027 68.5665 53.7027 68.222ZM57.0723 80.3165L53.1219 84.2833C52.8784 84.5278 52.8784 84.9223 53.1219 85.1665C53.2435 85.2886 53.404 85.3498 53.5646 85.3498C53.7251 85.3498 53.8853 85.2886 54.0072 85.1665L57.9577 81.1997C58.2012 80.9552 58.2012 80.5607 57.9577 80.3165C57.7088 80.072 57.3159 80.072 57.0724 80.3165H57.0723ZM82.9217 80.3165C82.6782 80.072 82.2853 80.072 82.0421 80.3165C81.7986 80.5611 81.7986 80.9556 82.0421 81.1997L85.9926 85.1665C86.1142 85.2886 86.2747 85.3498 86.4353 85.3498C86.5958 85.3498 86.756 85.2886 86.878 85.1665C87.1215 84.9219 87.1215 84.5274 86.878 84.2833L82.9217 80.3165ZM81.9588 56.8329C82.1193 56.8329 82.2795 56.7717 82.4015 56.6496L86.3519 52.6828C86.5954 52.4383 86.5954 52.0438 86.3519 51.7996C86.1084 51.5551 85.7155 51.5551 85.4724 51.7996L81.5219 55.7664C81.2784 56.0109 81.2784 56.4054 81.5219 56.6496C81.6381 56.7717 81.7986 56.8329 81.9588 56.8329H81.9588ZM73.1064 92.1055L66.9151 93.7723C66.5832 93.861 66.3841 94.2056 66.4724 94.5388C66.5442 94.8167 66.7989 95 67.0757 95C67.1309 95 67.1806 94.9946 67.2362 94.9779L73.4275 93.3111C73.7594 93.2224 73.9585 92.8778 73.8702 92.5446C73.7756 92.2167 73.4383 92.0167 73.1064 92.1055V92.1055ZM75.2256 84.811C75.231 84.811 75.2422 84.8056 75.2476 84.8056C75.3417 84.7889 75.3915 84.7722 75.4521 84.7001C75.5795 84.6002 75.6625 84.4502 75.6845 84.2836C76.0218 83.6337 76.8407 82.139 79.3802 78.5945C85.4889 70.1215 83.3531 58.4879 72.8794 55.7319C65.2771 53.971 57.6808 59.4433 57.2491 67.5715C56.9391 71.8494 58.3336 75.3551 61.2547 79.5489C62.2895 81.0378 63.6229 82.738 64.4141 84.5655C64.7406 85.1433 65.8028 84.5601 67.4349 84.1822C69.2886 83.5657 70.666 83.7265 70.4116 82.6821C70.2901 82.3322 66.3284 70.7761 66.3284 70.7761C69.0173 71.8983 68.0933 72.165 70.1739 69.3093C70.1739 69.3147 70.788 70.187 71.2028 70.7815C71.5903 71.2815 71.6675 71.7147 72.3317 71.5206C72.4591 71.4372 75.5462 70.165 75.513 70.0704C75.9391 69.6426 75.5462 68.8261 74.8766 69.0373C74.7385 69.0873 72.4143 70.1208 72.2981 70.1708C69.886 66.8264 70.5552 66.5985 68.0489 70.1708C67.0473 69.8655 64.4137 67.9929 64.7016 69.8709C64.9451 70.5874 69.0226 82.4654 69.0226 82.4654L65.2824 83.4711C63.2022 79.4377 60.1205 76.8264 58.8754 72.0433C56.9279 64.3375 61.7194 57.0707 69.5261 56.6649C77.3774 56.3537 83.7288 63.8762 80.8517 72.954C79.8394 75.943 78.1517 78.2151 76.6079 80.3985C76.4142 80.7542 75.031 82.4873 74.6107 83.6821L65.1161 86.2379C64.8451 86.31 64.6568 86.56 64.6568 86.8436V89.4769C64.6568 89.6715 64.7452 89.8548 64.9003 89.9714C65.0551 90.0881 65.2546 90.1268 65.4426 90.0768L74.4501 87.6547V88.9937L65.1219 91.5048C64.7899 91.5936 64.5908 91.9381 64.6792 92.2714C64.751 92.5492 65.0057 92.7325 65.2824 92.7325C65.3376 92.7325 65.3874 92.7271 65.443 92.7104L75.2362 90.0772C75.5072 90.0051 75.6955 89.7551 75.6955 89.4714V86.8381C75.6955 86.6436 75.6071 86.4603 75.452 86.3437C75.2972 86.227 75.0977 86.1883 74.9097 86.2382L65.9022 88.6603V87.3214L75.2256 84.811Z" fill="white"/>
<defs>
<filter id="filter0_f_401_224" x="0" y="0" width="140" height="140" filterUnits="userSpaceOnUse" color-interpolation-filters="sRGB">
<feFlood flood-opacity="0" result="BackgroundImageFix"/>
<feBlend mode="normal" in="SourceGraphic" in2="BackgroundImageFix" result="shape"/>
<feGaussianBlur stdDeviation="10" result="effect1_foregroundBlur_401_224"/>
</filter>
<linearGradient id="paint0_linear_401_224" x1="20" y1="120" x2="120" y2="20" gradientUnits="userSpaceOnUse">
<stop stop-color="#A310FD"/>
<stop offset="0.5" stop-color="#FF3A72"/>
<stop offset="1" stop-color="#FF6839"/>
</linearGradient>
<linearGradient id="paint1_linear_401_224" x1="20" y1="120" x2="120" y2="20" gradientUnits="userSpaceOnUse">
<stop stop-color="#A310FD"/>
<stop offset="0.5" stop-color="#FF3A72"/>
<stop offset="1" stop-color="#FF6839"/>
</linearGradient>
</defs>
</svg>
