<svg width="140" height="140" viewBox="0 0 140 140" fill="none" xmlns="http://www.w3.org/2000/svg">
<g filter="url(#filter0_f_401_233)">
<circle cx="70" cy="70" r="50" fill="url(#paint0_linear_401_233)" fill-opacity="0.5"/>
</g>
<circle cx="70" cy="70" r="50" fill="url(#paint1_linear_401_233)"/>
<path d="M94.9795 74.5625L92.8562 54.9276C92.7867 54.3165 92.4553 53.7671 91.9499 53.4257C91.4444 53.0847 90.8166 52.9859 90.2327 53.1564L82.738 55.3663L78.7491 53.2326V53.2322C76.8518 52.2137 74.7106 51.7534 72.5682 51.9024C70.4257 52.0511 68.3671 52.8039 66.6247 54.0756C66.1518 54.4409 65.7191 54.8569 65.3337 55.3157L58.7632 55.8049L49.7615 53.1565C49.1784 52.9794 48.5482 53.0786 48.0461 53.4262C47.5402 53.7672 47.208 54.3162 47.1381 54.9277L45.0148 74.5625C44.9518 75.1457 45.0913 75.733 45.4084 76.2238C45.726 76.7147 46.2021 77.0784 46.7552 77.253L49.645 78.1722C49.8865 78.2533 50.1399 78.2933 50.3944 78.2904C50.9376 78.2916 51.4662 78.1137 51.9005 77.7834C52.3348 77.4532 52.6507 76.9886 52.8012 76.4602L52.9679 75.8783L67.3328 87.9055C67.924 88.4256 68.6738 88.7234 69.4565 88.7489C70.1754 88.7687 70.8768 88.5228 71.4302 88.0574C71.9954 87.5637 72.3532 86.8697 72.4293 86.1178C72.9814 86.5724 73.676 86.8121 74.3871 86.794C75.0987 86.7755 75.7798 86.5 76.308 86.0169C76.8366 85.5342 77.1769 84.8757 77.2676 84.1608C77.8584 84.5838 78.5797 84.7765 79.2995 84.7044C80.0192 84.632 80.6889 84.2992 81.1862 83.7675C81.6831 83.2355 81.9742 82.5395 82.0059 81.8076C82.3446 81.9349 82.7025 82.0004 83.0635 82.0016C83.882 82.0033 84.6663 81.6684 85.2369 81.0742C85.6565 80.6352 85.9346 80.078 86.0359 79.4759C86.1371 78.8738 86.0558 78.2548 85.8033 77.7005L87.1858 76.5198V76.5194C87.337 77.0453 87.6526 77.507 88.0852 77.8351C88.5174 78.1638 89.0436 78.3413 89.5839 78.3413C89.8385 78.3433 90.0914 78.3034 90.3333 78.2231L93.2232 77.3039C93.7888 77.1313 94.2754 76.7611 94.5971 76.2591C94.9187 75.7575 95.0545 75.1562 94.9801 74.5627L94.9795 74.5625ZM67.3489 55.1638C68.9018 54.0227 70.7397 53.346 72.6536 53.2101C74.5672 53.0746 76.4803 53.4856 78.1747 54.3962L81.3556 56.083L86.8267 75.1527L85.0701 76.6036L73.5116 64.5259C74.3614 64.4369 75.1352 63.9901 75.6431 63.2945C75.8598 63.0181 75.8192 62.6178 75.5516 62.3918C75.4203 62.2855 75.2528 62.2361 75.0852 62.255C74.9181 62.274 74.7652 62.3596 74.6607 62.4931C74.4452 62.8011 74.15 63.0424 73.8076 63.1915C73.4653 63.3402 73.0892 63.3904 72.7204 63.3365C72.045 63.3538 71.3819 63.1495 70.8301 62.7546L70.347 62.4004L67.8488 65.4706C67.0815 66.3123 66.0792 66.8975 64.9753 67.1475C63.8714 67.3979 62.7181 67.3011 61.6699 66.8703L61.162 66.6512C60.9693 66.5767 60.8196 66.419 60.7538 66.2209C60.692 66.0187 60.7225 65.7992 60.8371 65.6221L64.9509 58.0733V58.0737C65.5738 56.9671 66.3858 55.982 67.3491 55.1637L67.3489 55.1638ZM51.6017 76.1059C51.511 76.4329 51.291 76.7076 50.9938 76.8649C50.6998 77.0251 50.3546 77.0585 50.0358 76.9576L47.1464 76.0384C46.5926 75.8444 46.2462 75.2868 46.3137 74.6974L48.3955 55.0711C48.424 54.8326 48.5509 54.618 48.7452 54.4805C48.9432 54.3532 49.1852 54.3166 49.4113 54.3792L57.189 56.6735L51.6017 76.1059ZM84.3287 80.129C84.0066 80.475 83.561 80.6755 83.0917 80.6866C82.6225 80.6978 82.1683 80.5182 81.8304 80.1879L74.7768 73.4406H74.7772C74.519 73.2882 74.1909 73.3393 73.99 73.5633C73.7892 73.7869 73.7701 74.1226 73.9445 74.3684L80.2401 80.4074H80.2397C80.6772 80.8592 80.8431 81.5131 80.6756 82.1227C80.5076 82.7326 80.0315 83.205 79.4264 83.3627C78.821 83.5205 78.179 83.3389 77.7414 82.8871L71.1709 76.1397H71.1713C70.9245 75.8918 70.5268 75.8918 70.28 76.1397C70.0348 76.3922 70.0348 76.7978 70.28 77.0507L75.518 82.3896V82.3892C75.5155 82.409 75.5155 82.4288 75.518 82.4485C75.8912 82.8089 76.0868 83.3191 76.051 83.8401C76.034 84.3071 75.8355 84.7481 75.4989 85.0678C75.1618 85.3869 74.7141 85.5587 74.253 85.5451C73.7919 85.5315 73.3544 85.3342 73.0363 84.9957L66.6077 78.7796C66.4902 78.6585 66.3296 78.5901 66.1621 78.5901C65.9946 78.5901 65.8339 78.6585 65.7164 78.7796C65.4721 79.0296 65.4721 79.4323 65.7164 79.6819L70.6547 84.3883C70.6503 84.4076 70.6503 84.4278 70.6547 84.4476C70.9869 84.7976 71.1642 85.2696 71.1459 85.7547C71.1223 86.2402 70.9024 86.6949 70.538 87.0112C70.2262 87.2986 69.8187 87.4551 69.3971 87.4498C68.9156 87.4176 68.4598 87.2179 68.1065 86.8847L53.3419 74.5624L58.3384 57.1626L64.2425 56.724C64.0591 56.9938 63.9009 57.247 63.768 57.483L59.6624 65.0232C59.3802 65.5244 59.3286 66.1252 59.5209 66.6681C59.7242 67.1993 60.1426 67.6169 60.67 67.815L61.1779 68.0341H61.1783C62.4668 68.558 63.8823 68.6716 65.2362 68.3599C66.5903 68.0477 67.8179 67.3253 68.7558 66.2884L70.5881 64.0703C70.9459 64.2528 71.3269 64.3833 71.7205 64.4583C71.723 64.4752 71.723 64.492 71.7205 64.5089L84.3366 77.6747C84.3993 77.7418 84.455 77.8155 84.5029 77.8942C84.7343 78.2294 84.8437 78.6355 84.8116 79.0432C84.7799 79.4513 84.6087 79.8351 84.3281 80.1292L84.3287 80.129ZM92.8477 76.0383L89.983 76.9575C89.6618 77.0588 89.3137 77.0255 89.0169 76.8649C88.7241 76.7043 88.5078 76.4304 88.4175 76.1059L82.8298 56.7072L90.6076 54.4129C90.8332 54.3433 91.078 54.3804 91.2736 54.5142C91.468 54.6518 91.5952 54.8663 91.6237 55.1048L93.7389 74.7312H93.7385C93.7856 75.3258 93.4136 75.8719 92.8476 76.0383L92.8477 76.0383Z" fill="white"/>
<defs>
<filter id="filter0_f_401_233" x="0" y="0" width="140" height="140" filterUnits="userSpaceOnUse" color-interpolation-filters="sRGB">
<feFlood flood-opacity="0" result="BackgroundImageFix"/>
<feBlend mode="normal" in="SourceGraphic" in2="BackgroundImageFix" result="shape"/>
<feGaussianBlur stdDeviation="10" result="effect1_foregroundBlur_401_233"/>
</filter>
<linearGradient id="paint0_linear_401_233" x1="20" y1="120" x2="120" y2="20" gradientUnits="userSpaceOnUse">
<stop stop-color="#A310FD"/>
<stop offset="0.5" stop-color="#FF3A72"/>
<stop offset="1" stop-color="#FF6839"/>
</linearGradient>
<linearGradient id="paint1_linear_401_233" x1="20" y1="120" x2="120" y2="20" gradientUnits="userSpaceOnUse">
<stop stop-color="#A310FD"/>
<stop offset="0.5" stop-color="#FF3A72"/>
<stop offset="1" stop-color="#FF6839"/>
</linearGradient>
</defs>
</svg>
