<svg width="140" height="140" viewBox="0 0 140 140" fill="none" xmlns="http://www.w3.org/2000/svg">
<g filter="url(#filter0_f_401_242)">
<circle cx="70" cy="70" r="50" fill="url(#paint0_linear_401_242)" fill-opacity="0.5"/>
</g>
<circle cx="70" cy="70" r="50" fill="url(#paint1_linear_401_242)"/>
<path d="M70.1178 46.875C69.9 46.8907 69.6959 47.0265 69.6031 47.2176L62.0714 61.6752L45.521 63.863C45.0566 63.9131 44.8227 64.5762 45.1587 64.8903L57.0379 76.266L54.0636 92.17C53.942 92.6259 54.56 93.0755 54.9789 92.8361L68.9934 85.8353L69.2031 84.7129L68.9743 84.4845L55.4933 91.181L58.3154 76.1713C58.3583 75.9752 58.2916 75.76 58.144 75.6195L46.9137 64.8712L62.5679 62.7976C62.7683 62.7738 62.9533 62.6486 63.0447 62.4741L70.1188 48.8532L77.0211 62.6078C77.1006 62.7801 77.2686 62.9113 77.4596 62.9503L93.0757 65.2524L82.2835 75.2591C82.8173 75.4985 83.2813 75.5146 83.7326 75.5825L94.8486 65.2715C95.1599 64.9642 94.9613 64.3457 94.5245 64.2633L77.9545 61.8093L70.709 47.2376C70.6108 47.0177 70.3654 46.8674 70.1178 46.8763L70.1178 46.875ZM76.8486 69.133L73.1686 76.4191L65.0461 77.5223C64.6033 77.5894 64.3885 78.2325 64.7028 78.5496L70.5183 84.2756L69.0501 92.3037C68.963 92.7545 69.5422 93.1726 69.9463 92.9506L77.2301 89.2219L84.4564 93.0648C84.8545 93.28 85.4228 92.8823 85.3526 92.437L84.0179 84.3898L89.9478 78.7589C90.2847 78.4452 90.0627 77.769 89.6046 77.7125L81.5199 76.4951L77.9544 69.1326C77.8545 68.928 77.6303 68.7892 77.4015 68.7904C77.1301 68.7794 76.9881 69.0175 76.8486 69.1326L76.8486 69.133ZM77.3823 70.7881L80.5668 77.2943C80.651 77.473 80.8279 77.6055 81.0244 77.6369L88.1938 78.7401L82.9504 83.7241C82.8062 83.8646 82.7394 84.079 82.7789 84.276L83.9423 91.4291L77.5164 87.986C77.3458 87.8998 77.134 87.8998 76.9634 87.986L70.4806 91.3153L71.777 84.1813C71.8161 83.9843 71.7493 83.77 71.6056 83.6295L66.4191 78.55L73.6646 77.5609C73.8572 77.5333 74.0333 77.4093 74.1222 77.2374L77.3823 70.7881Z" fill="white"/>
<defs>
<filter id="filter0_f_401_242" x="0" y="0" width="140" height="140" filterUnits="userSpaceOnUse" color-interpolation-filters="sRGB">
<feFlood flood-opacity="0" result="BackgroundImageFix"/>
<feBlend mode="normal" in="SourceGraphic" in2="BackgroundImageFix" result="shape"/>
<feGaussianBlur stdDeviation="10" result="effect1_foregroundBlur_401_242"/>
</filter>
<linearGradient id="paint0_linear_401_242" x1="20" y1="120" x2="120" y2="20" gradientUnits="userSpaceOnUse">
<stop stop-color="#A310FD"/>
<stop offset="0.5" stop-color="#FF3A72"/>
<stop offset="1" stop-color="#FF6839"/>
</linearGradient>
<linearGradient id="paint1_linear_401_242" x1="20" y1="120" x2="120" y2="20" gradientUnits="userSpaceOnUse">
<stop stop-color="#A310FD"/>
<stop offset="0.5" stop-color="#FF3A72"/>
<stop offset="1" stop-color="#FF6839"/>
</linearGradient>
</defs>
</svg>
