<svg width="140" height="140" viewBox="0 0 140 140" fill="none" xmlns="http://www.w3.org/2000/svg">
<g filter="url(#filter0_f_401_251)">
<circle cx="70" cy="70" r="50" fill="url(#paint0_linear_401_251)" fill-opacity="0.5"/>
</g>
<circle cx="70" cy="70" r="50" fill="url(#paint1_linear_401_251)"/>
<path d="M77.7923 63.2547C78.0377 63.0093 78.0377 62.6113 77.7923 62.3659C77.5472 62.1208 77.1492 62.1208 76.9038 62.3659L77.7923 63.2547ZM70.1118 70.0467L69.6679 70.4916C69.9134 70.7364 70.3106 70.7364 70.5561 70.4909L70.1118 70.0467ZM66.2041 65.2603C65.9587 65.0152 65.5607 65.0156 65.3157 65.261C65.0706 65.5068 65.0709 65.9048 65.3167 66.1498L66.2041 65.2603ZM53.8576 69.3535C53.5105 69.3535 53.2293 69.6347 53.2293 69.9819C53.2293 70.329 53.5105 70.6102 53.8576 70.6102V69.3535ZM55.6202 70.6102C55.9674 70.6102 56.2486 70.329 56.2486 69.9819C56.2486 69.6347 55.9674 69.3535 55.6202 69.3535V70.6102ZM84.427 69.3535C84.0802 69.3535 83.7986 69.6347 83.7986 69.9819C83.7986 70.329 84.0802 70.6102 84.427 70.6102V69.3535ZM86.199 70.6102C86.5461 70.6102 86.8273 70.329 86.8273 69.9819C86.8273 69.6347 86.5461 69.3535 86.199 69.3535V70.6102ZM69.3995 86.1432C69.3995 86.4903 69.6811 86.7715 70.0278 86.7715C70.3749 86.7715 70.6561 86.4903 70.6561 86.1432H69.3995ZM70.6561 84.3806C70.6561 84.0334 70.3749 83.7522 70.0278 83.7522C69.6811 83.7522 69.3995 84.0334 69.3995 84.3806H70.6561ZM69.3995 55.5738C69.3995 55.9206 69.6811 56.2022 70.0278 56.2022C70.3749 56.2022 70.6561 55.9206 70.6561 55.5738H69.3995ZM70.6561 53.8109C70.6561 53.4641 70.3749 53.1825 70.0278 53.1825C69.6811 53.1825 69.3995 53.4641 69.3995 53.8109H70.6561ZM93.7434 70C93.7434 83.1131 83.1131 93.7434 70 93.7434V95C83.8069 95 95 83.8069 95 70H93.7434ZM70 93.7434C56.8869 93.7434 46.2566 83.1131 46.2566 70H45C45 83.8069 56.1931 95 70 95V93.7434ZM46.2566 70C46.2566 56.8869 56.8869 46.2566 70 46.2566V45C56.1931 45 45 56.1931 45 70H46.2566ZM70 46.2566C83.1131 46.2566 93.7434 56.8869 93.7434 70H95C95 56.1931 83.8069 45 70 45V46.2566ZM83.5987 56.4013C91.1105 63.9132 91.1105 76.092 83.5987 83.6032L84.4875 84.4916C92.4898 76.4893 92.4898 63.5147 84.4875 55.5126L83.5987 56.4013ZM83.5987 83.6032C76.0872 91.115 63.908 91.115 56.3968 83.6032L55.508 84.4916C63.5103 92.4939 76.485 92.4939 84.488 84.4916L83.5987 83.6032ZM56.3968 83.6032C48.885 76.0913 48.885 63.9125 56.3968 56.4013L55.508 55.5129C47.5057 63.5152 47.5057 76.4898 55.508 84.4919L56.3968 83.6032ZM56.3968 56.4013C63.9083 48.8895 76.0875 48.8895 83.5987 56.4013L84.4875 55.5129C76.4848 47.5102 63.5105 47.5102 55.5075 55.5129L56.3968 56.4013ZM76.9035 62.3658L69.6669 69.6024L70.5557 70.4908L77.7919 63.2547L76.9035 62.3658ZM70.555 69.602L66.2037 65.2602L65.3162 66.1498L69.6676 70.4915L70.555 69.602ZM53.8569 70.61H55.6195V69.3534H53.8569V70.61ZM84.4265 70.61H86.1986V69.3534H84.4265V70.61ZM70.6564 86.143V84.3804H69.3998V86.143H70.6564ZM70.6564 55.5734V53.8104H69.3998V55.5734H70.6564Z" fill="white"/>
<defs>
<filter id="filter0_f_401_251" x="0" y="0" width="140" height="140" filterUnits="userSpaceOnUse" color-interpolation-filters="sRGB">
<feFlood flood-opacity="0" result="BackgroundImageFix"/>
<feBlend mode="normal" in="SourceGraphic" in2="BackgroundImageFix" result="shape"/>
<feGaussianBlur stdDeviation="10" result="effect1_foregroundBlur_401_251"/>
</filter>
<linearGradient id="paint0_linear_401_251" x1="20" y1="120" x2="120" y2="20" gradientUnits="userSpaceOnUse">
<stop stop-color="#A310FD"/>
<stop offset="0.5" stop-color="#FF3A72"/>
<stop offset="1" stop-color="#FF6839"/>
</linearGradient>
<linearGradient id="paint1_linear_401_251" x1="20" y1="120" x2="120" y2="20" gradientUnits="userSpaceOnUse">
<stop stop-color="#A310FD"/>
<stop offset="0.5" stop-color="#FF3A72"/>
<stop offset="1" stop-color="#FF6839"/>
</linearGradient>
</defs>
</svg>
