<svg width="140" height="140" viewBox="0 0 140 140" fill="none" xmlns="http://www.w3.org/2000/svg">
<g filter="url(#filter0_f_401_260)">
<circle cx="70" cy="70" r="50" fill="url(#paint0_linear_401_260)" fill-opacity="0.5"/>
</g>
<circle cx="70" cy="70" r="50" fill="url(#paint1_linear_401_260)"/>
<path d="M89.5077 55.6277C89.5077 55.6123 89.5156 55.5887 89.5156 55.5733C89.5156 54.9049 89.2735 54.2755 88.8125 53.7935C86.367 51.1743 83.3049 49.0371 79.9689 47.6381C78.2188 46.8763 76.5938 46.4956 76.5938 46.4956C74.4376 45.9127 72.2267 45.625 70.0001 45.625C62.8984 45.625 56.0314 48.6016 51.1873 53.7935C50.7341 54.2755 50.4842 54.9128 50.4842 55.5733C50.4842 55.5966 50.4921 55.6123 50.4921 55.6356C46.9529 60.0267 45 65.522 45 71.149C45 75.1361 45.9844 79.1 47.836 82.6283C47.8515 83.1178 47.8907 83.6076 47.9845 84.0817C48.8125 88.7605 52.8828 92.1647 57.6561 92.1647C58.0154 92.1647 58.3905 92.1336 58.7578 92.095C59.0782 93.0586 59.9842 93.7348 61.0391 93.7348C61.1797 93.7348 61.3204 93.7194 61.4455 93.7037C62.6019 93.494 63.4457 92.4989 63.4457 91.341C63.4457 91.209 63.4378 91.0845 63.4144 90.9367L60.1331 72.4078C59.9224 71.2574 58.9222 70.4258 57.7582 70.4258C57.5942 70.4258 57.4536 70.4337 57.3209 70.457C56.1724 70.6667 55.3366 71.6538 55.3366 72.8196C55.3366 72.8429 55.3445 72.8661 55.3445 72.8894C53.0084 73.449 51.0321 74.8169 49.6962 76.651C49.2042 74.8634 48.9463 73.0214 48.9463 71.1561C48.9463 66.4462 50.5713 61.845 53.5246 58.1535C54.1105 58.068 54.6496 57.796 55.0557 57.3606C58.8994 53.2335 64.3525 50.863 70.0013 50.863H70.0092C75.6575 50.863 81.1024 53.2335 84.9548 57.3606C85.3533 57.7882 85.8925 58.0368 86.4625 58.1224C89.4233 61.8218 91.0642 66.4386 91.0642 71.1561C91.0642 73.0214 90.8063 74.8635 90.3143 76.6511C88.9784 74.8091 86.9939 73.449 84.6581 72.8894C84.6581 72.8661 84.666 72.8504 84.666 72.8271C84.666 71.6614 83.8301 70.6742 82.6738 70.4645C82.5411 70.4412 82.408 70.4334 82.244 70.4334C81.0801 70.4334 80.0798 71.2649 79.8766 72.4153L76.5954 90.9286C76.572 91.0607 76.5486 91.2084 76.5486 91.3562C76.5486 92.5141 77.3924 93.5092 78.5408 93.7189C78.6894 93.7343 78.83 93.75 78.9706 93.75C80.0176 93.75 80.9161 93.0737 81.2441 92.1102C81.6113 92.1492 81.9785 92.1799 82.3457 92.1799C87.1193 92.1799 91.1817 88.7915 92.0256 84.1124V84.1045C92.1036 83.6225 92.1507 83.1484 92.1583 82.6668C94.0156 79.108 95 75.1442 95 71.149C95 65.522 93.047 60.0269 89.5079 55.6283L89.5077 55.6277ZM57.5549 71.731C58.0941 71.6144 58.7346 72.0341 58.844 72.6248L62.1252 91.1381C62.1332 91.2004 62.1407 91.2702 62.1407 91.3403C62.1407 91.8767 61.758 92.3275 61.2268 92.4205C60.6096 92.5215 60.0471 92.1175 59.9457 91.5267L56.6565 73.0052C56.6486 72.9354 56.641 72.8807 56.641 72.8188C56.641 72.2749 57.0237 71.8162 57.5549 71.7306V71.731ZM55.5393 74.1638L58.1642 88.9463L58.4922 90.8194C54 91.2702 50.0313 88.1923 49.258 83.8557V83.8478C49.172 83.3737 49.1253 82.8685 49.1253 82.3711C49.1253 78.4928 51.766 75.1197 55.5392 74.1636L55.5393 74.1638ZM80.0543 91.5266C79.9528 92.1174 79.3745 92.5138 78.7652 92.4205C78.234 92.3271 77.8513 91.8766 77.8513 91.3402C77.8513 91.2704 77.8592 91.2082 77.8668 91.1538L81.156 72.6322C81.2419 72.1037 81.7027 71.723 82.2418 71.723C82.3044 71.723 82.367 71.723 82.4292 71.7384C82.9525 71.8239 83.3431 72.2902 83.3431 72.8187C83.3431 72.8884 83.3431 72.9586 83.3276 73.0208L80.0543 91.5266ZM90.734 83.8555C89.9683 88.1922 85.953 91.2622 81.4998 90.8192L82.0703 87.6171L84.461 74.1638C88.2342 75.1121 90.867 78.493 90.867 82.3635C90.8667 82.8609 90.8199 83.3582 90.7339 83.8556L90.734 83.8555ZM47.6411 71.1478C47.6411 73.5337 48.0238 75.8888 48.7817 78.1584C48.4849 78.7803 48.2583 79.4408 48.0943 80.1246C46.9225 77.2879 46.3053 74.2257 46.3053 71.1557C46.3053 66.1037 47.9616 61.1612 50.9849 57.1115C51.0864 57.2514 51.2036 57.3835 51.3288 57.5001C51.532 57.6865 51.7586 57.8265 52.0006 57.9352C52.0086 57.9431 52.0086 57.9506 52.0161 57.9585C49.188 61.7592 47.6411 66.4068 47.6411 71.148L47.6411 71.1478ZM86.8835 56.8939C86.5083 56.886 86.1648 56.7386 85.907 56.4663C81.8053 52.0828 76.0163 49.5648 70.0011 49.5648C63.9932 49.5648 58.1961 52.0831 54.0951 56.4742C53.8452 56.7461 53.4934 56.886 53.1187 56.9018C52.7827 56.9018 52.4547 56.7697 52.2123 56.5443C51.9389 56.2956 51.7825 55.9457 51.7825 55.5729C51.7825 55.2387 51.9077 54.9278 52.1418 54.6791C56.7355 49.7513 63.2516 46.922 70.0007 46.922C72.1176 46.922 74.2192 47.2018 76.2506 47.7382C77.6098 48.1658 79.4538 48.8342 79.4538 48.8342C82.6257 50.1556 85.5318 52.184 87.852 54.6712C88.0866 54.9199 88.2113 55.2308 88.2113 55.5729C88.2113 55.9461 88.0628 56.2878 87.7815 56.5443C87.5395 56.7694 87.2115 56.8939 86.8835 56.8939L86.8835 56.8939ZM91.9066 80.1329C91.7426 79.4491 91.516 78.7882 91.2193 78.1667C91.9771 75.905 92.3677 73.5423 92.3677 71.156C92.3677 66.415 90.8208 61.767 87.9927 57.9592C88.024 57.9438 88.0395 57.9281 88.0553 57.9048C88.2819 57.8039 88.4926 57.6715 88.6804 57.5005C88.8056 57.3838 88.9149 57.2518 89.0163 57.1119C92.0397 61.1613 93.6959 66.1041 93.6959 71.156C93.6956 74.2265 93.0784 77.2886 91.9066 80.1332L91.9066 80.1329Z" fill="white"/>
<defs>
<filter id="filter0_f_401_260" x="0" y="0" width="140" height="140" filterUnits="userSpaceOnUse" color-interpolation-filters="sRGB">
<feFlood flood-opacity="0" result="BackgroundImageFix"/>
<feBlend mode="normal" in="SourceGraphic" in2="BackgroundImageFix" result="shape"/>
<feGaussianBlur stdDeviation="10" result="effect1_foregroundBlur_401_260"/>
</filter>
<linearGradient id="paint0_linear_401_260" x1="20" y1="120" x2="120" y2="20" gradientUnits="userSpaceOnUse">
<stop stop-color="#A310FD"/>
<stop offset="0.5" stop-color="#FF3A72"/>
<stop offset="1" stop-color="#FF6839"/>
</linearGradient>
<linearGradient id="paint1_linear_401_260" x1="20" y1="120" x2="120" y2="20" gradientUnits="userSpaceOnUse">
<stop stop-color="#A310FD"/>
<stop offset="0.5" stop-color="#FF3A72"/>
<stop offset="1" stop-color="#FF6839"/>
</linearGradient>
</defs>
</svg>
