<svg width="140" height="140" viewBox="0 0 140 140" fill="none" xmlns="http://www.w3.org/2000/svg">
<g filter="url(#filter0_f_401_269)">
<circle cx="70" cy="70" r="50" fill="url(#paint0_linear_401_269)" fill-opacity="0.5"/>
</g>
<circle cx="70" cy="70" r="50" fill="url(#paint1_linear_401_269)"/>
<path d="M60.9473 83.143C61.8087 82.4542 62.3464 81.4344 62.4303 80.3294C62.5145 79.2247 62.137 78.1346 61.3896 77.3214C60.6418 76.5086 59.5916 76.0465 58.4914 76.0465C57.3912 76.0465 56.3407 76.5086 55.5932 77.3214C54.8454 78.1345 54.4683 79.2246 54.5521 80.3294C54.636 81.4344 55.1737 82.4542 56.0355 83.143C54.893 83.6308 53.9186 84.4459 53.233 85.4876C52.5474 86.5289 52.181 87.7504 52.1798 89.0003C52.1943 89.3679 52.494 89.6583 52.8593 89.6583C53.2246 89.6583 53.5244 89.3679 53.5389 89.0003C53.5389 87.2173 54.4831 85.5698 56.016 84.6783C57.549 83.7872 59.4374 83.7872 60.9704 84.6783C62.5034 85.5698 63.4476 87.2173 63.4476 89.0003C63.4621 89.3679 63.7622 89.6583 64.1271 89.6583C64.4924 89.6583 64.7926 89.3679 64.807 89.0003C64.8051 87.75 64.4383 86.5282 63.7518 85.4865C63.0654 84.4452 62.0902 83.63 60.9473 83.143ZM55.8945 80.0239C55.8945 79.3306 56.1679 78.6661 56.6545 78.176C57.1411 77.6859 57.8008 77.4104 58.4892 77.4104C59.1775 77.4104 59.8372 77.6859 60.3238 78.176C60.8103 78.6661 61.0838 79.3306 61.0838 80.0239C61.0838 80.7173 60.8104 81.3818 60.3238 81.8719C59.8372 82.362 59.1775 82.6375 58.4892 82.6375C57.802 82.6367 57.143 82.3613 56.6565 81.8723C56.1703 81.3829 55.8961 80.7196 55.8946 80.027L55.8945 80.0239Z" fill="white"/>
<path d="M84.7311 56.1015C82.1513 56.1019 79.7154 57.2984 78.126 59.3449L71.6714 54.391C72.4631 52.0771 72.0127 49.5162 70.4809 47.6168C68.9491 45.7178 66.5524 44.7494 64.1419 45.0559C61.7318 45.3624 59.6493 46.9004 58.6338 49.1236C57.6187 51.3468 57.8151 53.9403 59.1524 55.9831C60.4902 58.0261 62.7801 59.2289 65.2085 59.164C67.6372 59.0994 69.8608 57.777 71.0895 55.6659L77.3731 60.4872C76.5807 61.9346 76.228 63.5847 76.3584 65.2322C76.4891 66.88 77.0974 68.4526 78.1076 69.7551L68.8544 77.7343C66.9397 74.0994 63.2773 71.7375 59.1985 71.5071C55.1194 71.277 51.2179 73.2118 48.912 76.6088C46.6061 80.0056 46.2312 84.3695 47.924 88.1147C49.6164 91.8602 53.13 94.4411 57.1875 94.9201C61.2453 95.3987 65.2558 93.7054 67.762 90.4559C70.2682 87.2064 70.905 82.8732 69.441 79.0317L79.0218 70.7641C81.0585 72.6642 83.8957 73.4279 86.6017 72.8041C89.3081 72.1799 91.5332 70.249 92.5461 67.6454C93.5589 65.0423 93.229 62.1027 91.6644 59.7927C90.0998 57.4827 87.5028 56.101 84.7268 56.1018L84.7311 56.1015ZM65.0338 57.7973C63.5328 57.7973 62.0937 57.197 61.0324 56.1279C59.9708 55.059 59.3748 53.609 59.3748 52.0971C59.3748 50.5852 59.9708 49.1356 61.0324 48.0666C62.0937 46.9977 63.5328 46.3969 65.0338 46.3969C66.5347 46.3969 67.9739 46.9977 69.0351 48.0666C70.0968 49.1356 70.6928 50.5852 70.6928 52.0971C70.6928 53.609 70.0967 55.059 69.0351 56.1279C67.9739 57.1969 66.5347 57.7973 65.0338 57.7973ZM58.4885 93.6956C55.7382 93.6956 53.1009 92.5955 51.1561 90.637C49.2113 88.6784 48.1188 86.0218 48.1184 83.252C48.1184 80.4818 49.2106 77.8252 51.1549 75.8663C53.0998 73.9074 55.7372 72.8069 58.4869 72.8069C61.2371 72.8069 63.8745 73.9071 65.8192 75.866C67.7637 77.8245 68.8562 80.4811 68.8562 83.2512C68.8531 86.0199 67.7599 88.6745 65.8161 90.6327C63.8725 92.5905 61.2371 93.6922 58.4885 93.6956ZM84.7304 71.6534C82.863 71.6534 81.0718 70.9059 79.7513 69.5757C78.4311 68.2456 77.6894 66.4418 77.6894 64.5608C77.6898 62.6794 78.4319 60.8755 79.7524 59.5458C81.073 58.216 82.8642 57.4689 84.7316 57.4693C86.599 57.4697 88.3898 58.2176 89.71 59.5478C91.0301 60.8783 91.7715 62.6825 91.7711 64.5635C91.7688 66.4433 91.0263 68.246 89.7062 69.575C88.3863 70.9041 86.5967 71.6514 84.7304 71.6534Z" fill="white"/>
<path d="M86.8163 64.4322C87.3777 63.8737 87.6949 63.1132 87.6984 62.3181C87.7014 61.5234 87.3903 60.7601 86.8335 60.197C86.2767 59.634 85.5202 59.3174 84.7312 59.3174C83.9418 59.3174 83.1852 59.6339 82.6285 60.197C82.0717 60.7602 81.7606 61.5234 81.7636 62.3181C81.7671 63.1132 82.0843 63.8737 82.6457 64.4322C81.8849 64.8209 81.2461 65.4136 80.7992 66.1458C80.3527 66.8775 80.1159 67.7195 80.1151 68.5783C80.1151 68.9563 80.419 69.2624 80.7943 69.2624C81.1695 69.2624 81.4734 68.9563 81.4734 68.5783C81.4509 67.6941 81.7838 66.8375 82.397 66.2041C83.0102 65.5703 83.8514 65.2131 84.73 65.2131C85.6082 65.2131 86.4494 65.5703 87.0627 66.2041C87.6759 66.8375 88.0092 67.694 87.9867 68.5783C88.0012 68.9459 88.3009 69.2363 88.6662 69.2363C89.0316 69.2363 89.3313 68.9459 89.3458 68.5783C89.3454 67.7194 89.1086 66.8775 88.662 66.1458C88.2159 65.414 87.5767 64.8209 86.8163 64.4322ZM83.1231 62.305C83.1231 61.8756 83.2924 61.4634 83.594 61.1596C83.8957 60.8558 84.3045 60.6852 84.7311 60.6852C85.1575 60.6852 85.5667 60.8558 85.868 61.1596C86.1696 61.4635 86.3389 61.8756 86.3389 62.305C86.3389 62.7344 86.1696 63.1466 85.868 63.4504C85.5667 63.7542 85.1575 63.9248 84.7311 63.9248C84.3048 63.924 83.896 63.7534 83.5947 63.4496C83.2931 63.1462 83.1235 62.7345 83.1231 62.305Z" fill="white"/>
<path d="M66.9472 51.9613C67.3892 51.4631 67.6226 50.812 67.5978 50.1444C67.573 49.4768 67.2927 48.8449 66.8149 48.3817C66.3374 47.918 65.7002 47.6591 65.0371 47.6591C64.3739 47.6591 63.7363 47.918 63.2589 48.3817C62.7814 48.8449 62.5008 49.4768 62.476 50.1444C62.4516 50.812 62.6846 51.463 63.1266 51.9613C62.5206 52.3031 62.0157 52.8017 61.6642 53.4056C61.313 54.0094 61.1272 54.6966 61.1269 55.3964C61.1269 55.774 61.4308 56.0805 61.806 56.0805C62.1809 56.0805 62.4852 55.774 62.4852 55.3964C62.4852 54.478 62.9714 53.6295 63.7611 53.1701C64.5505 52.7111 65.5233 52.7111 66.3131 53.1701C67.1024 53.6295 67.589 54.478 67.589 55.3964C67.6035 55.764 67.9032 56.0544 68.2685 56.0544C68.6335 56.0544 68.9336 55.764 68.9481 55.3964C68.9477 54.6962 68.762 54.009 68.41 53.4056C68.0584 52.8018 67.5535 52.3032 66.9472 51.9613ZM63.8389 50.2512C63.8381 49.7622 64.1299 49.3209 64.5783 49.1334C65.0268 48.946 65.5431 49.0493 65.8863 49.3954C66.2295 49.7411 66.3317 50.2612 66.1452 50.7128C65.9587 51.1642 65.5202 51.458 65.0347 51.4565C64.3746 51.4542 63.8408 50.9157 63.8389 50.2512Z" fill="white"/>
<defs>
<filter id="filter0_f_401_269" x="0" y="0" width="140" height="140" filterUnits="userSpaceOnUse" color-interpolation-filters="sRGB">
<feFlood flood-opacity="0" result="BackgroundImageFix"/>
<feBlend mode="normal" in="SourceGraphic" in2="BackgroundImageFix" result="shape"/>
<feGaussianBlur stdDeviation="10" result="effect1_foregroundBlur_401_269"/>
</filter>
<linearGradient id="paint0_linear_401_269" x1="20" y1="120" x2="120" y2="20" gradientUnits="userSpaceOnUse">
<stop stop-color="#A310FD"/>
<stop offset="0.5" stop-color="#FF3A72"/>
<stop offset="1" stop-color="#FF6839"/>
</linearGradient>
<linearGradient id="paint1_linear_401_269" x1="20" y1="120" x2="120" y2="20" gradientUnits="userSpaceOnUse">
<stop stop-color="#A310FD"/>
<stop offset="0.5" stop-color="#FF3A72"/>
<stop offset="1" stop-color="#FF6839"/>
</linearGradient>
</defs>
</svg>
