<svg width="140" height="140" viewBox="0 0 140 140" fill="none" xmlns="http://www.w3.org/2000/svg">
<g filter="url(#filter0_f_401_278)">
<circle cx="70" cy="70" r="50" fill="url(#paint0_linear_401_278)" fill-opacity="0.5"/>
</g>
<circle cx="70" cy="70" r="50" fill="url(#paint1_linear_401_278)"/>
<g clip-path="url(#clip0_401_278)">
<path d="M94.2934 45.0025C93.6373 45.0274 78.1618 45.6961 68.0313 55.8272C65.5 58.3584 63.2875 61.0085 61.419 63.7083L56.2067 61.471C54.3691 60.6894 52.2691 61.0957 50.8565 62.5021L45.1942 68.1642C45.0382 68.3202 44.9693 68.5452 45.0129 68.764C45.0565 68.9829 45.2003 69.1642 45.4065 69.2514L56.2939 73.9201C56.1003 74.6137 55.9438 75.2763 55.8562 75.8889C55.8248 76.0951 55.8936 76.3078 56.0436 76.4578L58.0185 78.4326L56.837 79.9075C56.6247 80.176 56.6435 80.5575 56.8872 80.7951L59.1995 83.1074C59.3308 83.2386 59.4995 83.3009 59.6747 83.3009C59.8247 83.3009 59.9686 83.2508 60.0937 83.1571L61.5686 81.9756L63.5374 83.9444C63.6626 84.0696 63.8313 84.138 64.0126 84.138C64.044 84.138 64.075 84.138 64.1125 84.1319C64.7189 84.0443 65.3877 83.8821 66.0813 83.6942L70.7562 94.5939C70.8438 94.8001 71.0247 94.944 71.2436 94.9876C71.2872 94.9937 71.3247 95.0002 71.3687 95.0002C71.5435 95.0002 71.7122 94.9313 71.8439 94.8066L77.5062 89.1445C78.9126 87.7381 79.3184 85.6386 78.5372 83.7945L76.2934 78.5756C78.9994 76.7006 81.6496 74.4881 84.1747 71.9635C94.306 61.8325 94.9748 46.3515 94.9996 45.702C95.0057 45.5145 94.9373 45.3332 94.8061 45.202C94.6626 45.0716 94.4748 44.9838 94.2934 45.0025ZM46.8372 68.4148L51.8059 63.4462C52.8248 62.4213 54.3498 62.1335 55.6808 62.6963L60.6621 64.8338C58.8746 67.5463 57.5245 70.2086 56.6996 72.6399L46.8372 68.4148ZM59.7188 81.7459L58.2501 80.2772L66.3311 70.1649L69.8249 73.6586L59.7188 81.7459ZM77.3002 84.3146C77.8691 85.652 77.5753 87.171 76.5564 88.1958L71.5877 93.1644L67.3501 83.2897C69.7815 82.4649 72.45 81.1148 75.1564 79.3335L77.3002 84.3146ZM83.2188 71.0147C80.6126 73.6209 77.8752 75.9022 75.075 77.7894C71.9875 79.8955 68.9375 81.4458 66.2503 82.2579C65.5313 82.4829 64.8565 82.6516 64.2313 82.758L62.6125 81.1393L71.2438 74.2395C71.3937 74.1209 71.4813 73.9456 71.4936 73.7521C71.5062 73.5646 71.4312 73.3771 71.3 73.2394L66.7498 68.6893C66.619 68.5585 66.4311 68.4901 66.2436 68.5023C66.0562 68.5149 65.8748 68.6021 65.7562 68.7521L58.8563 77.3835L57.2314 75.7587C57.3439 75.1335 57.5126 74.4587 57.7314 73.7336C58.5441 71.0526 60.0878 68.0025 62.2 64.9151C64.0873 62.1276 66.3626 59.3841 68.9749 56.7781C77.4997 48.2534 90.3877 46.6658 93.5998 46.3971C93.3373 49.6027 91.7502 62.477 83.2188 71.0147Z" fill="white"/>
<path d="M52.0871 77.7393C49.181 81.839 48.8309 86.7827 48.7934 87.4514C48.7498 87.72 48.8684 87.9951 49.106 88.1389C49.3685 88.295 49.7059 88.2575 49.9247 88.0391C49.9496 88.0142 49.9749 87.9828 49.9936 87.958C50.4126 87.5456 50.8934 87.233 51.4249 87.0142C51.6062 86.9392 51.7937 86.8768 51.9873 86.8328C51.9812 87.383 51.8935 88.0452 51.625 88.7575C51.2187 89.8448 50.5564 90.5951 50.0563 91.0388C50.0188 91.0637 49.9753 91.0951 49.9439 91.1264C49.725 91.3453 49.6941 91.6827 49.8562 91.9452C49.9814 92.1453 50.1998 92.2577 50.4313 92.2577H50.4875C50.9749 92.2329 57.6438 91.8327 61.9874 87.4892L61.0436 86.5454C58.2125 89.3765 54.2936 90.3827 52.0937 90.7328C52.3876 90.3077 52.6627 89.8077 52.8811 89.2204C53.2687 88.1955 53.406 87.0703 53.2874 85.977C53.2499 85.6147 52.9373 85.3584 52.5685 85.3832C52.0061 85.4268 51.4499 85.5581 50.931 85.7708C50.7122 85.8584 50.4998 85.9583 50.2936 86.0769C50.5687 84.2768 51.2998 81.1706 53.181 78.5209L52.0871 77.7393Z" fill="white"/>
<path d="M55.6931 81.1823C54.0308 82.8446 53.9244 85.3509 53.9184 85.4573C53.9123 85.6447 53.9807 85.8261 54.112 85.9573C54.2371 86.0824 54.4058 86.1509 54.5872 86.1509H54.612C54.7184 86.1448 57.2308 86.0384 58.8871 84.3762L57.9432 83.4323C57.1681 84.2075 56.0935 84.5509 55.3685 84.7009C55.5184 83.9759 55.8624 82.9075 56.6371 82.1262L55.6931 81.1823Z" fill="white"/>
<path d="M80.1305 65.9584C81.7554 65.9584 83.2869 65.3272 84.437 64.171C86.8121 61.7959 86.8121 57.9273 84.437 55.5526C82.0619 53.1775 78.1932 53.1775 75.8184 55.5526C73.4433 57.9276 73.4433 61.7962 75.8184 64.171C76.9741 65.3206 78.5057 65.9584 80.1305 65.9584ZM76.768 56.5022C77.6678 55.6024 78.8619 55.1085 80.1305 55.1085C81.3992 55.1085 82.5928 55.6024 83.4931 56.5022C85.3495 58.3585 85.3495 61.3709 83.4931 63.2272C81.693 65.0207 78.5619 65.0207 76.768 63.2272C74.9182 61.3709 74.9182 58.3524 76.768 56.5022Z" fill="white"/>
</g>
<defs>
<filter id="filter0_f_401_278" x="0" y="0" width="140" height="140" filterUnits="userSpaceOnUse" color-interpolation-filters="sRGB">
<feFlood flood-opacity="0" result="BackgroundImageFix"/>
<feBlend mode="normal" in="SourceGraphic" in2="BackgroundImageFix" result="shape"/>
<feGaussianBlur stdDeviation="10" result="effect1_foregroundBlur_401_278"/>
</filter>
<linearGradient id="paint0_linear_401_278" x1="20" y1="120" x2="120" y2="20" gradientUnits="userSpaceOnUse">
<stop stop-color="#A310FD"/>
<stop offset="0.5" stop-color="#FF3A72"/>
<stop offset="1" stop-color="#FF6839"/>
</linearGradient>
<linearGradient id="paint1_linear_401_278" x1="20" y1="120" x2="120" y2="20" gradientUnits="userSpaceOnUse">
<stop stop-color="#A310FD"/>
<stop offset="0.5" stop-color="#FF3A72"/>
<stop offset="1" stop-color="#FF6839"/>
</linearGradient>
<clipPath id="clip0_401_278">
<rect width="50" height="50" fill="white" transform="translate(45 45)"/>
</clipPath>
</defs>
</svg>
