<svg width="140" height="140" viewBox="0 0 140 140" fill="none" xmlns="http://www.w3.org/2000/svg">
<g filter="url(#filter0_f_401_118)">
<circle cx="70" cy="70" r="50" fill="#A310FD" fill-opacity="0.5"/>
</g>
<circle cx="70" cy="70" r="50" fill="#A310FD"/>
<g clip-path="url(#clip0_401_118)">
<path d="M89.1142 76.1147C89.2485 75.9947 89.3325 75.8283 89.3494 75.649C89.3662 75.4697 89.3148 75.2906 89.2052 75.1476C89.0558 74.9384 87.1256 72.2719 81.3267 71.1852C86.2467 69.1205 87.7233 66.4867 87.9827 65.9433L87.9909 65.9216C88.0548 65.7655 88.0627 65.5921 88.0131 65.4309C87.9636 65.2696 87.8597 65.1306 87.7192 65.0373C87.3511 64.7969 85.41 63.6789 81.5916 63.9085C83.7514 61.8343 84.1589 60.2409 84.1589 60.2192C84.2011 60.0552 84.1852 59.8817 84.1139 59.7281C84.0426 59.5746 83.9202 59.4505 83.7677 59.377H83.7514C83.3031 59.1827 80.9681 58.3188 76.8482 59.3512C78.8857 56.6195 79.0814 54.7015 79.0963 54.4787C79.1093 54.3045 79.0586 54.1316 78.9537 53.9919C78.8487 53.8523 78.6967 53.7554 78.5258 53.7194C78.4456 53.7018 76.6377 53.3214 73.6112 54.4217C74.8786 51.7865 74.8052 50.1265 74.7835 49.8685V49.8549C74.769 49.6792 74.6907 49.5148 74.5633 49.3929C74.4359 49.2711 74.2683 49.2001 74.0921 49.1933H74.0663C73.3993 49.1933 70.017 49.3944 65.4801 53.4898C66.1036 51.4822 66.363 49.6104 66.2489 47.9124C66.1484 46.3924 65.7789 45.5611 65.7056 45.4103L65.6933 45.3899C65.6151 45.2436 65.4898 45.128 65.3377 45.0617C65.1856 44.9954 65.0157 44.9823 64.8552 45.0245C64.0809 45.2514 57.2701 47.6842 54.5982 63.2918C53.4067 63.9218 52.4357 64.9004 51.8149 66.0968C51.8007 66.122 51.7914 66.1496 51.7878 66.1783V66.2259C51.208 67.4842 50.9414 68.8642 51.0108 70.248C51.0163 70.3946 51.0653 70.5362 51.1517 70.6547C51.2381 70.7733 51.3579 70.8634 51.4957 70.9136L65.5249 75.8417C65.5602 75.9259 65.5982 76.0074 65.639 76.0876C55.9335 87.1827 58.4859 93.3578 58.6067 93.6295V93.6444C58.6653 93.7697 58.7584 93.8758 58.8751 93.9501C58.9918 94.0244 59.1272 94.064 59.2656 94.0641H59.3688C59.3912 94.0641 59.4136 94.0614 59.4353 94.056C59.8836 93.946 62.1168 93.241 64.502 89.9456C64.9748 93.1731 66.2353 94.5844 66.4241 94.7786L66.4336 94.7895C66.4997 94.8579 66.5788 94.9124 66.6663 94.9498C66.7538 94.9871 66.8479 95.0065 66.943 95.0069C67.0972 95.0072 67.2476 94.9598 67.3736 94.871C67.4619 94.8112 69.4438 93.4502 70.5305 89.3955C72.4729 92.8783 74.5376 93.9202 75.1828 94.1742C75.2084 94.1867 75.236 94.1946 75.2644 94.1973C75.3294 94.2041 75.3949 94.2041 75.46 94.1973C75.5875 94.1936 75.7119 94.157 75.8212 94.0911C75.9304 94.0252 76.0208 93.9321 76.0834 93.821C76.2913 93.4284 77.9566 89.9211 74.9682 83.2557C78.9659 85.8365 81.9529 86.4016 83.7881 86.4016C84.4395 86.4197 85.0893 86.3278 85.7102 86.1299C85.87 86.0727 86.0045 85.961 86.0902 85.8144C86.1759 85.6679 86.2073 85.4959 86.1788 85.3285C86.1122 84.9468 85.3991 81.7193 80.1436 78.5625C80.2686 78.5693 80.3922 78.5693 80.5158 78.5693C86.5333 78.5679 88.9091 76.3212 89.1142 76.1147ZM71.9825 72.5355C81.9353 71.5547 86.1802 74.3706 87.5209 75.5931C84.1019 77.7353 78.413 77.1485 76.654 76.8999C75.2817 76.3257 73.8792 75.8269 72.4525 75.4057C72.5781 74.9209 72.6011 74.4152 72.5202 73.921C72.4393 73.4268 72.2562 72.9549 71.9825 72.5355ZM60.2639 87.7247C61.2406 84.5203 63.3488 81.0225 66.5382 77.321V77.3142C66.8902 77.6089 67.2943 77.8351 67.7295 77.9811C65.533 88.4337 61.4023 91.5648 59.7614 92.4178C59.6242 91.5389 59.5848 89.97 60.2639 87.7247ZM78.8735 64.3758C75.32 65.0957 71.3713 66.7352 67.1441 69.236C66.8574 69.3053 66.5668 69.3718 66.2951 69.4275L64.0524 68.1724C74.1573 59.9434 80.3677 60.1676 82.461 60.5995C81.9923 61.4363 80.9844 62.8408 78.8681 64.3758H78.8735ZM66.8928 73.5841C66.9321 73.5343 66.9645 73.4795 66.9892 73.4211C67.2386 72.9702 67.6401 72.6227 68.1221 72.4404C68.3938 72.3388 68.683 72.2917 68.9729 72.3019C69.2629 72.312 69.548 72.3792 69.812 72.4995C70.076 72.6198 70.3137 72.791 70.5116 73.0032C70.7094 73.2154 70.8635 73.4645 70.9651 73.7362C71.0667 74.008 71.1138 74.2971 71.1036 74.5871C71.0935 74.877 71.0263 75.1622 70.906 75.4262C70.7857 75.6902 70.6145 75.9279 70.4023 76.1257C70.1901 76.3236 69.941 76.4777 69.6693 76.5793H69.6597C69.2508 76.7324 68.8055 76.7603 68.3805 76.6596C67.9556 76.5588 67.5703 76.3339 67.2736 76.0135C66.9769 75.693 66.7823 75.2916 66.7144 74.8602C66.6466 74.4287 66.7087 73.9869 66.8928 73.5909V73.5841ZM78.0191 70.8946C75.5172 70.7646 73.0086 70.8696 70.5264 71.2083C70.4916 71.1844 70.4548 71.1635 70.4164 71.1458C69.954 70.9371 69.4525 70.8292 68.9452 70.8293C68.895 70.8293 68.8447 70.8293 68.7945 70.8293L68.0202 70.4015C78.5462 64.1734 84.3355 65.3225 86.2617 66.0547C85.5132 67.0585 83.3167 69.3569 78.0191 70.8946ZM65.9555 72.3195C65.0403 71.876 64.1913 71.3073 63.433 70.6297C62.7144 69.854 60.4854 69.2455 59.7043 69.1844C58.7388 68.9943 57.8784 68.4521 57.2905 67.663C56.6113 66.7651 55.0207 66.2517 53.6623 65.9664C54.0415 65.499 54.4976 65.0998 55.0112 64.786L66.8697 71.442C66.5158 71.6786 66.2064 71.9756 65.9555 72.3195ZM59.5807 70.6229C60.2599 70.6745 62.038 71.2341 62.3681 71.6077C62.377 71.6178 62.3871 71.6269 62.3979 71.6349C63.2756 72.4379 64.2676 73.1062 65.3415 73.6181C65.2895 73.827 65.2564 74.0403 65.2424 74.2551L52.4126 69.7467C52.4227 68.9089 52.5871 68.08 52.8975 67.3017C54.2559 67.5421 55.742 68.0257 56.1264 68.5324C56.9527 69.6511 58.1845 70.4015 59.5576 70.6229H59.5807ZM69.2115 78.1591C69.2617 78.1591 69.312 78.1509 69.3623 78.1441C70.7206 87.7885 68.1981 91.9084 67.053 93.2301C66.6034 92.4436 65.8849 90.7593 65.8061 87.9257C67.4187 84.8568 68.5664 81.5653 69.2115 78.1591ZM71.8304 76.7437C81.0904 79.4522 83.7759 83.4377 84.4958 85.012C80.2957 85.4779 75.1109 81.7519 73.5216 80.5186V80.5118C72.8696 79.3857 72.151 78.28 71.3944 77.2204C71.5533 77.0745 71.6992 76.9149 71.8304 76.7437ZM62.91 56.2147C60.7525 58.7405 58.8509 61.4743 57.2334 64.3758L56.0109 63.6966C56.9523 58.1151 58.5429 53.6692 60.7407 50.4838C62.3178 48.199 63.8174 47.1585 64.6039 46.7306C64.8824 47.9559 65.2084 51.1711 62.91 56.2147ZM71.3563 55.522C67.5719 57.497 63.6843 60.9676 59.8103 65.8374L58.5035 65.1039C65.1011 53.4763 71.0928 51.2486 73.258 50.8166C72.9635 52.5017 72.3153 54.1054 71.3563 55.522ZM74.16 60.3224C70.5046 61.7596 66.6442 64.153 62.6818 67.4538L61.1034 66.5505C69.2536 56.4212 75.3526 55.253 77.488 55.1987C77.1973 56.1387 76.3796 58.0213 74.16 60.3224ZM70.9678 79.2037C73.1317 82.4637 74.4914 85.5024 75.0144 88.2504C75.4043 90.2988 75.2331 91.7183 75.0361 92.5197C74.1423 91.922 72.4553 90.4292 70.9828 87.0862H70.9692C71.2891 84.4684 71.2886 81.8214 70.9678 79.2037Z" fill="white"/>
</g>
<defs>
<filter id="filter0_f_401_118" x="0" y="0" width="140" height="140" filterUnits="userSpaceOnUse" color-interpolation-filters="sRGB">
<feFlood flood-opacity="0" result="BackgroundImageFix"/>
<feBlend mode="normal" in="SourceGraphic" in2="BackgroundImageFix" result="shape"/>
<feGaussianBlur stdDeviation="10" result="effect1_foregroundBlur_401_118"/>
</filter>
<clipPath id="clip0_401_118">
<rect width="50" height="50" fill="white" transform="translate(45 45)"/>
</clipPath>
</defs>
</svg>
