<svg width="140" height="140" viewBox="0 0 140 140" fill="none" xmlns="http://www.w3.org/2000/svg">
<g filter="url(#filter0_f_401_130)">
<circle cx="70" cy="70" r="50" fill="#CF24BB" fill-opacity="0.5"/>
</g>
<circle cx="70" cy="70" r="50" fill="#CF24BB"/>
<g clip-path="url(#clip0_401_130)">
<path d="M94.4661 48.0059C94.4511 47.9953 94.4342 47.9876 94.4163 47.9835C94.3984 47.9794 94.3799 47.9789 94.3618 47.982C94.3437 47.9851 94.3264 47.9918 94.3109 48.0016C94.2954 48.0115 94.282 48.0243 94.2714 48.0393L92.3569 50.7783C92.3444 50.7964 90.9666 52.7248 88.6349 52.7248C87.207 52.7248 85.6776 52.0296 84.0899 50.6393C80.7321 47.7112 77.9751 45.9649 75.6587 45.2975C73.373 44.6399 71.5057 45.0723 70.107 46.6017C69.9822 46.7391 69.87 46.8875 69.772 47.0452C69.6753 46.8865 69.5636 46.7375 69.4383 46.6003C66.6409 43.5415 62.0694 44.8679 55.4555 50.6323C53.8663 52.0143 52.3369 52.7178 50.909 52.7178C48.5885 52.7178 47.1995 50.7894 47.187 50.7713L45.2516 47.967C45.2362 47.9454 45.2149 47.9287 45.1903 47.9189C45.1656 47.909 45.1387 47.9064 45.1126 47.9114C45.094 47.9145 45.0763 47.9214 45.0605 47.9316C45.0447 47.9418 45.0311 47.9551 45.0206 47.9707C45.01 47.9863 45.0028 48.0039 44.9992 48.0223C44.9957 48.0408 44.996 48.0598 45 48.0782L45.8161 51.3873C46.3723 53.6688 47.4665 55.4374 49.0543 56.647C49.0404 56.6692 49.0278 56.6915 49.0153 56.7165C48.352 58.1501 48.0099 59.7112 48.0129 61.2908C48.0129 65.1101 49.9677 68.6374 53.1211 70.5325C53.0933 70.8564 53.0807 71.1512 53.0807 71.4293C53.0807 75.4613 55.2094 79.0999 58.6338 80.9296C58.7951 81.0144 58.9536 81.1034 59.1135 81.1937C59.361 84.5445 61.7093 87.7284 66.0931 90.6482C66.1125 90.6635 68.4205 92.2276 69.1713 94.4786C69.2221 94.6301 69.3192 94.7619 69.4489 94.8552C69.5787 94.9485 69.7345 94.9987 69.8943 94.9986H69.9875C70.148 94.9996 70.3048 94.9497 70.4352 94.856C70.5656 94.7623 70.663 94.6297 70.7132 94.4772C71.4585 92.2443 73.772 90.6607 73.7915 90.6454C78.1794 87.7173 80.5264 84.5375 80.7697 81.1826C80.9254 81.0964 81.0797 81.0102 81.2327 80.9282C84.6585 79.0985 86.7871 75.4599 86.7871 71.4279C86.7871 71.1498 86.7746 70.8523 86.7468 70.5297C89.9085 68.636 91.855 65.1031 91.855 61.2894C91.8523 59.6168 91.4655 57.9672 90.7246 56.4676C92.1831 55.2664 93.1911 53.559 93.7236 51.3942V51.3831L94.5175 48.1519C94.5244 48.1252 94.5232 48.0971 94.514 48.0711C94.5048 48.0451 94.4882 48.0224 94.4661 48.0059ZM82.5187 63.717C82.448 63.7877 82.3919 63.8717 82.3536 63.9641C82.3153 64.0566 82.2956 64.1557 82.2956 64.2557C82.2956 64.3558 82.3153 64.4549 82.3536 64.5473C82.3919 64.6397 82.448 64.7237 82.5187 64.7945C83.392 65.6631 84.0843 66.6962 84.5556 67.8341C85.027 68.972 85.268 70.1921 85.2647 71.4237C85.2647 74.8134 83.524 77.8777 80.7071 79.4739C80.1927 75.827 77.3536 73.4689 77.2312 73.3688C77.2272 73.3644 77.2225 73.3606 77.2173 73.3577C77.1393 73.2935 77.0493 73.2455 76.9525 73.2165C76.8557 73.1874 76.7541 73.1779 76.6537 73.1885C76.5532 73.1991 76.4558 73.2295 76.3672 73.2781C76.2786 73.3267 76.2006 73.3924 76.1376 73.4714C76.0746 73.5504 76.028 73.6411 76.0005 73.7383C75.9729 73.8355 75.9649 73.9372 75.977 74.0375C75.9891 74.1378 76.0211 74.2347 76.071 74.3226C76.1209 74.4104 76.1877 74.4875 76.2677 74.5492C76.2997 74.5756 79.4488 77.1728 79.2653 80.9129C79.1263 83.8326 76.9963 86.6759 72.9489 89.3746C71.7419 90.22 70.7177 91.3 69.9374 92.5502C69.1601 91.3004 68.1381 90.2207 66.9329 89.376C62.8897 86.6787 60.7638 83.8354 60.6165 80.924C60.4329 77.2729 63.4917 74.6591 63.6155 74.5492C63.7367 74.4499 63.8242 74.3155 63.8661 74.1645C63.908 74.0135 63.9022 73.8532 63.8496 73.7056C63.7969 73.558 63.7 73.4302 63.572 73.3398C63.4439 73.2494 63.2911 73.2008 63.1344 73.2006C62.9548 73.1978 62.7802 73.2594 62.6422 73.3744C62.5213 73.4773 59.6808 75.8311 59.1663 79.4919C56.3425 77.8986 54.5934 74.8301 54.5934 71.4348C54.59 70.2029 54.8309 68.9826 55.3023 67.8445C55.7736 66.7063 56.466 65.673 57.3394 64.8042C57.4816 64.661 57.5614 64.4673 57.5614 64.2654C57.5614 64.0636 57.4816 63.8699 57.3394 63.7267C57.2689 63.6558 57.185 63.5996 57.0927 63.5612C57.0003 63.5228 56.9013 63.5031 56.8013 63.5031C56.7013 63.5031 56.6023 63.5228 56.51 63.5612C56.4176 63.5996 56.3338 63.6558 56.2633 63.7267C54.8401 65.1479 53.8399 66.9366 53.3741 68.8932C50.9604 67.1984 49.5256 64.3746 49.5256 61.2963C49.5227 59.9752 49.8009 58.6685 50.3417 57.4631C51.6292 58.0985 53.135 58.4211 54.8173 58.4211C56.4385 58.4042 58.0488 58.1542 59.5987 57.6786C60.9334 59.0598 62.5318 60.1589 64.2991 60.911C66.0664 61.663 67.9667 62.0527 69.8874 62.0569C74.2976 62.0569 77.6734 60.6429 80.1913 57.7468C81.6592 58.1737 83.1785 58.3986 84.7072 58.4155C86.4966 58.4155 88.0885 58.0457 89.4427 57.3144C90.0215 58.5553 90.3223 59.9076 90.3242 61.2769V61.2894C90.3242 64.369 88.8935 67.1928 86.4813 68.8863C86.0166 66.9293 85.0162 65.1403 83.5921 63.7197C83.4494 63.5781 83.2565 63.4986 83.0554 63.4986C82.8544 63.4986 82.6615 63.5781 82.5187 63.7197V63.717ZM69.8901 60.5191C66.6734 60.5207 63.5758 59.3018 61.2227 57.1086C65.1268 55.5959 68.5735 52.9375 69.7664 50.5308C70.9996 53.0265 74.5701 55.7307 78.6021 57.2351C76.422 59.4778 73.6413 60.5275 69.8874 60.5275L69.8901 60.5191ZM68.4859 49.6855C67.0955 52.8583 60.3815 56.8833 54.8298 56.8833C52.7679 56.8833 50.022 56.3091 48.3688 53.648C49.1612 54.0345 50.0315 54.2347 50.9132 54.2333C52.7206 54.2333 54.5865 53.3991 56.4607 51.7696C60.5275 48.2242 63.5863 46.5002 65.8108 46.5002C66.2839 46.4918 66.753 46.5871 67.1853 46.7792C67.6176 46.9714 68.0027 47.2558 68.3135 47.6124C68.8057 48.1644 68.8627 48.836 68.4859 49.6938V49.6855ZM84.7127 56.8889C79.1596 56.8889 72.4484 52.8638 71.058 49.691C70.6813 48.8346 70.7369 48.1616 71.2291 47.6208C71.5402 47.2645 71.9253 46.9803 72.3575 46.7882C72.7898 46.5961 73.2587 46.5007 73.7317 46.5085C75.9563 46.5085 79.0151 48.2325 83.0818 51.7766C84.956 53.4061 86.8205 54.2403 88.628 54.2403C89.5081 54.2404 90.3768 54.0402 91.1682 53.6549C89.522 56.3147 86.776 56.8889 84.7127 56.8889Z" fill="white"/>
</g>
<defs>
<filter id="filter0_f_401_130" x="0" y="0" width="140" height="140" filterUnits="userSpaceOnUse" color-interpolation-filters="sRGB">
<feFlood flood-opacity="0" result="BackgroundImageFix"/>
<feBlend mode="normal" in="SourceGraphic" in2="BackgroundImageFix" result="shape"/>
<feGaussianBlur stdDeviation="10" result="effect1_foregroundBlur_401_130"/>
</filter>
<clipPath id="clip0_401_130">
<rect width="50" height="50" fill="white" transform="translate(45 45)"/>
</clipPath>
</defs>
</svg>
