<svg width="140" height="140" viewBox="0 0 140 140" fill="none" xmlns="http://www.w3.org/2000/svg">
<g filter="url(#filter0_f_401_142)">
<circle cx="70" cy="70" r="50" fill="#F0338A" fill-opacity="0.5"/>
</g>
<circle cx="70" cy="70" r="50" fill="#F0338A"/>
<path d="M81.5128 50.3763C78.6705 46.8279 74.6484 45 69.5001 45C64.3518 45 60.3295 46.7742 57.4874 50.3763C52.1781 57.0431 52.3389 68.5484 54.1087 76.3979C56.4149 86.4516 63.4401 95 69.5 95C75.5599 95 82.5853 86.4517 84.8913 76.3979C86.661 68.5486 86.8219 57.043 81.513 50.3763H81.5128ZM76.2035 78.4946C73.9511 78.4946 72.3423 75.8601 71.8597 75.0538C72.557 73.656 76.0427 67.2582 79.1532 65.1075C81.459 63.4945 82.7997 62.3657 83.9795 60.7528C84.3551 62.8496 84.516 65.1616 84.4086 67.7421C84.033 70.4303 83.1214 73.0109 81.6737 75.1076C80.1182 77.2584 78.1341 78.4948 76.2035 78.4948L76.2035 78.4946ZM57.3264 75.0538C55.8784 72.957 54.9667 70.3764 54.5915 67.6883C54.4841 65.1614 54.6988 62.7957 55.0206 60.6989C56.2004 62.3119 57.5411 63.4408 59.8469 65.0537C62.9573 67.2581 66.3895 73.602 67.1403 74.9999C66.7113 75.8062 65.1024 78.4408 62.7965 78.4408C60.8659 78.4944 58.8818 77.258 57.3264 75.0536L57.3264 75.0538ZM71.1625 73.871L70.0365 72.957V62.9033C71.2163 63.8172 73.4152 65.269 75.721 65.6451C75.1845 66.8279 74.5946 68.0108 73.8977 69.2473C72.7179 71.0755 71.6989 72.8497 71.1625 73.8713V73.871ZM69.5001 82.5806C68.4811 82.5806 67.516 82.6342 66.8722 82.6342L69.0172 77.2042H70.0362L72.1811 82.6342C71.4842 82.6346 70.5191 82.5806 69.5001 82.5806ZM65.1024 69.301C64.459 68.0645 63.8691 66.8817 63.3327 65.6988C65.5851 65.215 67.7838 63.7633 68.9637 62.8494V72.9031L67.8373 73.8171C67.3013 72.8495 66.2823 71.0752 65.1024 69.301V69.301ZM69.9827 76.129H68.9636L68.4272 74.7313L69.4997 73.871L70.5721 74.7313L69.9827 76.129ZM77.0079 65.3763C78.2412 62.6345 79.0458 60.1076 79.6357 57.9569C80.0648 59.0861 80.7621 60.4302 81.8881 61.3978C81.03 62.2581 80.0109 63.0643 78.4559 64.1396C77.9733 64.4625 77.4908 64.8926 77.0079 65.3764V65.3763ZM76.1501 64.6773C73.4687 64.4084 70.7337 62.1504 70.0365 61.559V52.0432C71.5915 53.6021 74.8094 56.2367 78.9924 56.1291C78.456 58.4948 77.5979 61.3978 76.1501 64.6774V64.6773ZM68.9636 61.559C68.2129 62.1504 65.478 64.3009 62.85 64.731C61.402 61.4514 60.5442 58.5484 59.9543 56.1286C64.1373 56.2899 67.4086 53.6017 68.9102 52.0427V61.5589L68.9636 61.559ZM61.9923 65.3764C61.5097 64.8926 61.0271 64.4625 60.5442 64.14C58.9892 63.0648 57.9701 62.258 57.112 61.3981C58.2384 60.4306 58.9353 59.1401 59.3644 57.9573C59.9543 60.1076 60.7586 62.6346 61.9923 65.3763V65.3764ZM67.8376 76.1291L68.052 76.6669L65.907 82.1509C65.4245 81.5058 64.6199 80.4843 63.7621 79.5703C65.7463 79.0862 67.1404 77.2583 67.8378 76.1291L67.8376 76.1291ZM66.3896 83.7635C66.9795 83.7099 68.1593 83.6559 69.5 83.6559C70.7872 83.6559 72.0205 83.7095 72.6104 83.7635L74.7554 89.2475C73.5756 88.8173 71.5914 88.2799 69.4999 88.2799C67.4084 88.2799 65.4243 88.8177 64.2445 89.2475L66.3896 83.7635ZM70.9482 76.6669L71.1625 76.1292C71.8598 77.2584 73.254 79.0322 75.2382 79.5163C74.38 80.4839 73.6292 81.4518 73.0932 82.0969L70.9482 76.6669ZM83.658 59.0863C83.3363 59.6241 83.0146 60.1079 82.639 60.5917C81.0301 59.1939 80.3866 56.8283 80.1719 55.9143C80.4936 54.5166 80.7084 53.2798 80.8692 52.2046C81.9956 53.8711 83.0145 56.1829 83.658 59.0863H83.658ZM79.9576 50.9681C79.7967 52.0433 79.6359 53.3874 79.2603 55.0004C74.3801 55.3229 70.7335 51.237 70.0363 50.4303L70.0366 46.6129C74.2196 46.7741 77.5444 48.2259 79.9579 50.968L79.9576 50.9681ZM68.9638 46.613V50.4304C68.2665 51.2367 64.62 55.3229 59.7398 55.0005C59.4181 53.3875 59.2033 51.9898 59.0425 50.9682C61.4561 48.2261 64.7809 46.7743 68.9637 46.6131L68.9638 46.613ZM58.1309 52.2046C58.2918 53.2262 58.5065 54.4626 58.8282 55.9143C58.6139 56.8283 58.0239 59.1939 56.3611 60.5917C55.9856 60.1615 55.6639 59.6777 55.3421 59.0863C55.9855 56.1829 57.0045 53.8712 58.1309 52.2046H58.1309ZM55.2348 73.7637C55.5565 74.4628 55.9856 75.1078 56.3612 75.6992C57.1655 76.882 58.1309 77.796 59.15 78.495L57.1654 80.8066C56.5755 79.3013 56.093 77.6883 55.6639 76.0217C55.503 75.269 55.3421 74.5163 55.2348 73.7636L55.2348 73.7637ZM57.648 81.8822L60.1151 79.0327C60.8659 79.4092 61.6167 79.5705 62.4209 79.6241C63.7616 80.9682 65.0488 82.6888 65.4779 83.2799L62.9038 89.7854C60.9193 87.8499 59.0426 85.1618 57.648 81.8822V81.8822ZM63.7081 90.6453C64.4054 90.3764 66.8185 89.4089 69.4999 89.4089C72.1278 89.4089 74.5945 90.3228 75.2918 90.6453C73.3076 92.4195 71.2696 93.3872 69.4999 93.3872C67.7836 93.3876 65.746 92.366 63.7081 90.6453ZM76.0962 89.839L73.5221 83.3335C73.9512 82.7421 75.2384 81.0218 76.5791 79.6777C77.3299 79.6241 78.1341 79.4089 78.8849 79.0863L81.352 81.9358C79.9575 85.1618 78.0807 87.85 76.0962 89.839V89.839ZM81.8346 80.8066L79.8504 78.495C80.8695 77.8499 81.7811 76.882 82.6392 75.6992C83.0683 75.1077 83.4435 74.4087 83.7656 73.7637C83.6582 74.5163 83.4974 75.269 83.3365 76.0217C82.9071 77.6883 82.4245 79.3013 81.8345 80.8067L81.8346 80.8066Z" fill="white"/>
<path d="M83.3362 65.3225C83.3362 65.1612 83.2288 64.9459 83.068 64.8387C82.9071 64.731 82.7463 64.6774 82.5315 64.785C77.5443 66.4512 73.1466 74.6775 72.9857 74.9991C72.8784 75.214 72.8784 75.4829 73.0392 75.6442C73.0927 75.6978 74.4873 77.2572 76.4714 77.3108H76.6323C77.8121 77.3108 78.8847 76.827 79.9036 75.8054C83.3362 72.4186 83.3362 65.5903 83.3362 65.3215L83.3362 65.3225ZM79.0458 74.9999C78.2416 75.8062 77.3835 76.1827 76.5253 76.1827C75.5063 76.129 74.6481 75.5376 74.2195 75.1611C75.0776 73.6557 78.4559 68.0641 82.1564 66.1826C81.9955 68.1181 81.4591 72.6345 79.0459 74.9998L79.0458 74.9999Z" fill="white"/>
<path d="M65.9606 75.6988C66.1215 75.5376 66.175 75.2687 66.0141 75.0538C65.8533 74.7313 61.4556 66.5055 56.4147 64.785C56.2538 64.7314 56.0391 64.7314 55.8783 64.8386C55.7174 64.9462 55.61 65.1075 55.61 65.3224C55.61 65.5913 55.61 72.4729 59.0422 75.86C60.0613 76.8816 61.1337 77.3654 62.3136 77.3654H62.4744C64.5128 77.2581 65.907 75.7528 65.9604 75.6988L65.9606 75.6988ZM62.475 76.1826C61.5634 76.1826 60.7587 75.8061 59.901 74.9998C57.4878 72.6341 56.9513 68.1181 56.844 66.1826C60.5444 68.0645 63.9231 73.6557 64.7808 75.1611C64.3518 75.5376 63.5475 76.1291 62.475 76.1827V76.1826Z" fill="white"/>
<defs>
<filter id="filter0_f_401_142" x="0" y="0" width="140" height="140" filterUnits="userSpaceOnUse" color-interpolation-filters="sRGB">
<feFlood flood-opacity="0" result="BackgroundImageFix"/>
<feBlend mode="normal" in="SourceGraphic" in2="BackgroundImageFix" result="shape"/>
<feGaussianBlur stdDeviation="10" result="effect1_foregroundBlur_401_142"/>
</filter>
</defs>
</svg>
