<svg width="140" height="140" viewBox="0 0 140 140" fill="none" xmlns="http://www.w3.org/2000/svg">
<g filter="url(#filter0_f_401_156)">
<circle cx="70" cy="70" r="50" fill="#FF4368" fill-opacity="0.5"/>
</g>
<circle cx="70" cy="70" r="50" fill="#FF4368"/>
<g clip-path="url(#clip0_401_156)">
<path d="M86.596 89.1284L85.9385 87.646L73.5392 59.6886C73.7324 59.6458 73.9187 59.5632 74.0864 59.4414C74.5416 59.1108 74.7653 58.5608 74.6701 58.0065L74.1701 55.0913L74.4324 54.8356C76.4174 55.4134 78.0406 56.4252 79.3392 57.8868C79.4943 58.0611 79.7097 58.1501 79.9257 58.1501C80.1109 58.1501 80.2968 58.0849 80.4464 57.9522C80.7702 57.6644 80.7993 57.1686 80.5118 56.8451C79.1936 55.3615 77.6007 54.2827 75.7044 53.5961L76.2884 53.0268C76.6911 52.6339 76.8336 52.0579 76.6596 51.523C76.4859 50.9879 76.0318 50.6056 75.4754 50.5247L72.8651 50.1455C74.4323 48.1956 76.265 47.0097 78.4051 46.5516C78.8287 46.4609 79.0987 46.0443 79.008 45.6206C78.9173 45.1969 78.501 44.9273 78.0769 45.0176C75.7279 45.5204 73.6708 46.8012 71.9264 48.8391L71.2391 47.4466C70.9898 46.942 70.4856 46.6287 69.9232 46.6287C69.3609 46.6287 68.8567 46.942 68.6077 47.4466L67.9204 48.8391C66.176 46.8009 64.119 45.5201 61.7699 45.0176C61.3458 44.9266 60.9295 45.1969 60.8388 45.6206C60.7481 46.0443 61.0181 46.4609 61.4418 46.5516C63.5818 47.0096 65.4144 48.1956 66.9817 50.1455L64.3714 50.5247C63.8147 50.6056 63.361 50.9879 63.1872 51.523C63.0132 52.058 63.1557 52.6343 63.5584 53.0268L64.1424 53.5961C62.2461 54.2827 60.6525 55.3615 59.3346 56.8451C59.0468 57.1689 59.0762 57.6647 59.4001 57.9522C59.5496 58.0849 59.7355 58.1501 59.9208 58.1501C60.1372 58.1501 60.3525 58.0611 60.5073 57.8868C61.8055 56.4252 63.4288 55.4133 65.4137 54.8356L65.6763 55.0916L65.1763 58.0068C65.0811 58.5611 65.3048 59.1111 65.76 59.4417C65.9277 59.5636 66.114 59.6455 66.3073 59.6882L53.908 87.6456L53.2504 89.1281C52.9363 89.8364 52.9171 90.6242 53.1961 91.3469C53.2133 91.3918 53.2319 91.4359 53.2511 91.4796C53.541 92.1334 54.0547 92.648 54.7112 92.938C57.5904 94.21 63.4191 95 69.9233 95C76.4274 95 82.2563 94.2101 85.1354 92.938C85.7919 92.6481 86.3056 92.1334 86.5954 91.4796C86.6147 91.4362 86.6333 91.3918 86.6504 91.3469C86.9295 90.6246 86.9102 89.8368 86.5961 89.1285L86.596 89.1284ZM68.3202 59.0198L69.9235 58.177L71.5268 59.0198L72.4263 61.0474L64.5688 67.4788L68.3202 59.0198ZM63.1574 70.6608L73.0854 62.5344L75.6922 68.4118L57.5795 83.2376L63.1574 70.6608ZM56.1682 86.4197L76.3524 69.8989L78.9592 75.7763L62.736 89.0549C59.7475 88.743 57.2353 88.2405 55.6421 87.6064L56.1682 86.4197ZM79.6178 77.2643L82.2246 83.142L74.7561 89.2551C73.2127 89.357 71.5856 89.412 69.9232 89.412C68.2201 89.412 66.5541 89.3545 64.9774 89.2477L79.6178 77.2643ZM82.8842 84.6291L84.2049 87.6074C82.687 88.2118 80.3348 88.6963 77.5313 89.0108L82.8842 84.6291ZM69.8324 48.1411L69.8327 48.1414C69.8327 48.1414 69.8327 48.1411 69.8324 48.1411ZM67.5771 51.6438C68.0551 51.5745 68.4679 51.2744 68.6818 50.8413L69.9234 48.3256L71.1651 50.8413C71.3786 51.2744 71.7918 51.5745 72.2697 51.6438L75.046 52.0472L73.0369 54.0056C72.691 54.3427 72.5334 54.828 72.615 55.3042L73.0894 58.0693L70.6063 56.7637C70.1788 56.5389 69.6682 56.5389 69.2411 56.7637L66.7579 58.0693L67.2324 55.3042C67.314 54.8284 67.1564 54.3427 66.8105 54.0059L64.8014 52.0476L67.5771 51.6438ZM84.5012 91.5031C81.85 92.6743 76.1277 93.4313 69.9238 93.4313C63.7199 93.4313 57.9977 92.6743 55.3463 91.5031C55.3067 91.4856 55.2682 91.4663 55.2311 91.4453C54.9706 91.2982 54.7707 91.0665 54.6604 90.7818C54.5322 90.4506 54.5413 90.0892 54.6852 89.7642L55.0056 89.0423C57.9752 90.2415 63.6338 90.9803 69.9237 90.9803C76.2136 90.9803 81.8722 90.2415 84.8418 89.0423L85.1622 89.7642C85.3064 90.0892 85.3152 90.4505 85.187 90.7818C85.0771 91.0665 84.8768 91.2982 84.6166 91.4453C84.5792 91.4663 84.5407 91.4856 84.5011 91.5031H84.5012Z" fill="white"/>
</g>
<defs>
<filter id="filter0_f_401_156" x="0" y="0" width="140" height="140" filterUnits="userSpaceOnUse" color-interpolation-filters="sRGB">
<feFlood flood-opacity="0" result="BackgroundImageFix"/>
<feBlend mode="normal" in="SourceGraphic" in2="BackgroundImageFix" result="shape"/>
<feGaussianBlur stdDeviation="10" result="effect1_foregroundBlur_401_156"/>
</filter>
<clipPath id="clip0_401_156">
<rect width="33.8466" height="50" fill="white" transform="translate(53 45)"/>
</clipPath>
</defs>
</svg>
