<svg width="140" height="140" viewBox="0 0 140 140" fill="none" xmlns="http://www.w3.org/2000/svg">
<g filter="url(#filter0_f_401_168)">
<circle cx="70" cy="70" r="50" fill="#FF5354" fill-opacity="0.5"/>
</g>
<circle cx="70" cy="70" r="50" fill="#FF5354"/>
<path d="M90.3532 57.3612L83.0709 45.3597C82.9895 45.2296 82.8708 45.127 82.7303 45.0652C82.5898 45.0033 82.434 44.9851 82.283 45.0129C82.132 45.0406 81.9929 45.1131 81.8836 45.2209C81.7743 45.3287 81.6999 45.4668 81.67 45.6174L71.9322 94.085C71.8964 94.2645 71.9263 94.451 72.0164 94.6104C72.1066 94.7697 72.251 94.8914 72.4234 94.9532C72.5037 94.983 72.5886 94.9984 72.6743 94.9988H72.6971C72.8308 94.9983 72.962 94.9628 73.0778 94.896C73.1936 94.8292 73.29 94.7332 73.3573 94.6177L89.3508 67.1769C89.4447 67.0281 89.4843 66.8514 89.4628 66.6768C89.4412 66.5021 89.36 66.3403 89.2327 66.2188L85.3534 62.4334L90.1707 58.3475C90.3155 58.2332 90.4139 58.0701 90.4474 57.8887C90.481 57.7073 90.4475 57.5198 90.3532 57.3612ZM83.6842 62.9393L87.7392 66.8937L74.3489 89.8823L82.8026 47.8368L88.7067 57.5813L83.6922 61.8175C83.6139 61.8882 83.5512 61.9745 83.508 62.0707C83.4649 62.167 83.4422 62.2711 83.4414 62.3766C83.4407 62.4821 83.4618 62.5866 83.5036 62.6835C83.5454 62.7804 83.6069 62.8675 83.6842 62.9393Z" fill="white"/>
<path d="M57.7435 45.6147C57.7129 45.4658 57.6382 45.3297 57.5292 45.2239C57.4201 45.1181 57.2817 45.0476 57.132 45.0215C56.9823 44.9955 56.8282 45.0151 56.6898 45.0778C56.5515 45.1405 56.4351 45.2434 56.356 45.3731L49.1114 57.3612C49.0166 57.5158 48.9803 57.6991 49.0091 57.8781C49.0379 58.0571 49.1299 58.2198 49.2684 58.3368L54.099 62.4536L50.2171 66.2389C50.0935 66.3566 50.0131 66.5124 49.9888 66.6813C49.9644 66.8502 49.9976 67.0224 50.0829 67.1702L66.0925 94.6177C66.1593 94.7337 66.2555 94.83 66.3714 94.8969C66.4873 94.9638 66.6189 94.9989 66.7527 94.9988H66.7688C66.8604 95.0002 66.9515 94.9842 67.0372 94.9518C67.2085 94.8892 67.3514 94.767 67.4399 94.6076C67.5284 94.4481 67.5564 94.2621 67.5189 94.0836L57.7435 45.6147ZM55.7589 62.9245C55.8351 62.8503 55.895 62.761 55.9347 62.6623C55.9744 62.5636 55.9931 62.4577 55.9896 62.3513C55.986 62.245 55.9603 62.1406 55.9142 62.0447C55.868 61.9489 55.8023 61.8637 55.7213 61.7947L50.7444 57.5813L56.6486 47.8368L65.1022 89.881L51.7052 66.8924L55.7589 62.9245Z" fill="white"/>
<path d="M71.468 84.0184C71.005 83.5563 70.3777 83.2967 69.7236 83.2967C69.0694 83.2967 68.4421 83.5563 67.9791 84.0184C67.517 84.4813 67.2574 85.1087 67.2574 85.7628C67.2574 86.4169 67.517 87.0443 67.9791 87.5072C68.2077 87.7371 68.4795 87.9193 68.779 88.0435C69.0784 88.1676 69.3994 88.2312 69.7236 88.2305C70.3779 88.2291 71.0051 87.9685 71.4678 87.5058C71.9306 87.0431 72.1911 86.4159 72.1926 85.7615C72.19 85.1077 71.9296 84.4814 71.468 84.0184ZM70.0858 86.6404C69.9581 86.6902 69.821 86.7114 69.6842 86.7026C69.5474 86.6938 69.4141 86.6551 69.2939 86.5893C69.1736 86.5235 69.0692 86.4321 68.9879 86.3216C68.9067 86.2112 68.8507 86.0843 68.8237 85.9499C68.7968 85.8154 68.7996 85.6767 68.832 85.5435C68.8643 85.4103 68.9255 85.2857 69.0111 85.1786C69.0967 85.0716 69.2048 84.9845 69.3276 84.9236C69.4505 84.8628 69.5851 84.8295 69.7222 84.8262C69.9431 84.8209 70.1588 84.8937 70.3313 85.0316C70.5039 85.1696 70.6223 85.364 70.6657 85.5806C70.7091 85.7973 70.6748 86.0223 70.5687 86.2161C70.4627 86.4099 70.2917 86.5602 70.0858 86.6404Z" fill="white"/>
<path d="M67.9765 75.8291C67.6313 76.1743 67.3962 76.6141 67.3009 77.0929C67.2056 77.5717 67.2544 78.068 67.4411 78.5191C67.6278 78.9701 67.944 79.3557 68.3498 79.6271C68.7556 79.8985 69.2327 80.0436 69.7209 80.0439C70.127 80.0441 70.5269 79.9442 70.8851 79.753C71.2434 79.5617 71.5489 79.2851 71.7747 78.9475C72.0005 78.6099 72.1395 78.2219 72.1794 77.8178C72.2194 77.4136 72.159 77.0059 72.0037 76.6307C71.8484 76.2554 71.603 75.9243 71.2891 75.6666C70.9752 75.4089 70.6027 75.2326 70.2044 75.1534C69.8061 75.0741 69.3944 75.0943 69.0058 75.2122C68.6171 75.33 68.2636 75.5419 67.9765 75.8291ZM70.0832 78.4457C69.9553 78.4956 69.8181 78.5168 69.6811 78.508C69.5442 78.4991 69.4109 78.4603 69.2905 78.3944C69.1701 78.3284 69.0657 78.2369 68.9845 78.1263C68.9034 78.0156 68.8474 77.8885 68.8206 77.7539C68.7938 77.6193 68.7969 77.4805 68.8295 77.3472C68.8622 77.2139 68.9236 77.0894 69.0096 76.9824C69.0955 76.8754 69.2039 76.7885 69.327 76.7279C69.4501 76.6673 69.585 76.6344 69.7222 76.6315C69.9428 76.6269 70.1581 76.7001 70.3301 76.8383C70.5021 76.9765 70.62 77.1709 70.6631 77.3873C70.7062 77.6038 70.6716 77.8285 70.5656 78.022C70.4596 78.2155 70.2888 78.3655 70.0832 78.4457Z" fill="white"/>
<path d="M71.472 67.6371C71.2438 67.4066 70.9721 67.2238 70.6726 67.0991C70.3732 66.9745 70.0519 66.9106 69.7276 66.9112C69.4036 66.9101 69.0827 66.9732 68.7833 67.0969C68.4838 67.2206 68.2119 67.4024 67.9832 67.6318C67.5214 68.0948 67.262 68.7222 67.262 69.3762C67.262 70.0302 67.5214 70.6575 67.9832 71.1206C68.2117 71.3506 68.4835 71.533 68.7829 71.6574C69.0823 71.7818 69.4034 71.8456 69.7276 71.8452C70.2149 71.8437 70.6909 71.6981 71.0957 71.4267C71.5005 71.1554 71.816 70.7703 72.0025 70.3201C72.189 69.8698 72.2381 69.3744 72.1437 68.8963C72.0493 68.4182 71.8156 67.9787 71.472 67.6331V67.6371ZM70.0832 70.2564C69.9554 70.3056 69.8184 70.3263 69.6818 70.317C69.5452 70.3077 69.4123 70.2687 69.2924 70.2027C69.1725 70.1366 69.0684 70.0451 68.9876 69.9347C68.9067 69.8242 68.851 69.6973 68.8243 69.5631C68.7976 69.4288 68.8006 69.2903 68.833 69.1573C68.8655 69.0243 68.9266 68.8999 69.0121 68.793C69.0977 68.6861 69.2056 68.5992 69.3282 68.5384C69.4509 68.4776 69.5853 68.4443 69.7222 68.4409C69.943 68.4367 70.1582 68.5105 70.33 68.6492C70.5018 68.788 70.6192 68.9828 70.6616 69.1995C70.7041 69.4162 70.6688 69.6409 70.562 69.8342C70.4553 70.0275 70.2838 70.177 70.0778 70.2564H70.0832Z" fill="white"/>
<path d="M71.472 59.4465C71.2435 59.2164 70.9717 59.0338 70.6723 58.9092C70.3729 58.7846 70.0518 58.7205 69.7276 58.7205C69.4037 58.7197 69.0828 58.783 68.7834 58.9066C68.484 59.0303 68.2121 59.2119 67.9832 59.4411C67.5217 59.9047 67.2614 60.5314 67.2586 61.1855C67.259 61.5912 67.3594 61.9905 67.5508 62.3482C67.7423 62.7059 68.0189 63.0109 68.3563 63.2362C68.6936 63.4615 69.0813 63.6002 69.485 63.6401C69.8888 63.6799 70.2961 63.6197 70.671 63.4647C71.0459 63.3097 71.3768 63.0646 71.6345 62.7513C71.8922 62.438 72.0687 62.066 72.1484 61.6682C72.2282 61.2704 72.2086 60.8591 72.0916 60.4707C71.9745 60.0822 71.7636 59.7286 71.4773 59.4411L71.472 59.4465ZM70.0832 62.0658C69.9553 62.1156 69.8181 62.1369 69.6811 62.128C69.5442 62.1191 69.4109 62.0804 69.2905 62.0144C69.1701 61.9485 69.0657 61.8569 68.9845 61.7463C68.9034 61.6357 68.8474 61.5086 68.8206 61.374C68.7938 61.2394 68.7969 61.1005 68.8295 60.9672C68.8622 60.8339 68.9236 60.7094 69.0096 60.6024C69.0955 60.4954 69.2039 60.4086 69.327 60.348C69.4501 60.2874 69.585 60.2545 69.7222 60.2516C69.9428 60.247 70.1581 60.3202 70.3301 60.4584C70.5021 60.5966 70.62 60.7909 70.6631 61.0074C70.7062 61.2238 70.6716 61.4485 70.5656 61.642C70.4596 61.8356 70.2888 61.9856 70.0832 62.0658Z" fill="white"/>
<path d="M62.974 55.3672C63.2255 55.4875 63.5004 55.5508 63.7792 55.5524H63.7926C64.0865 55.5524 64.3765 55.4854 64.6406 55.3565L68.591 53.4135C68.9485 53.5686 69.3339 53.6485 69.7236 53.6483C70.0887 53.6475 70.4503 53.5769 70.789 53.4403L74.6629 55.3565C74.9261 55.4853 75.2152 55.5523 75.5083 55.5524H75.5351C75.9669 55.5521 76.3859 55.4062 76.7246 55.1384C77.0632 54.8706 77.3017 54.4964 77.4016 54.0764C77.9075 51.9225 77.9075 49.6807 77.4016 47.5268C77.3379 47.2412 77.2095 46.9741 77.0264 46.7459C76.8432 46.5177 76.6101 46.3345 76.3451 46.2105C76.0801 46.0864 75.7901 46.0249 75.4976 46.0304C75.205 46.036 74.9176 46.1086 74.6575 46.2427L70.785 48.1561C70.4463 48.02 70.0845 47.9508 69.7195 47.9522C69.3225 47.9523 68.9299 48.0355 68.5669 48.1964L64.6285 46.2507C64.37 46.1216 64.0855 46.0526 63.7964 46.0491C63.5074 46.0455 63.2213 46.1074 62.9596 46.2302C62.6979 46.353 62.4674 46.5334 62.2854 46.758C62.1034 46.9825 61.9746 47.2454 61.9086 47.5268C61.4028 49.6821 61.4028 51.9252 61.9086 54.0804C61.9767 54.3618 62.108 54.6239 62.2927 54.8469C62.4773 55.0699 62.7103 55.2479 62.974 55.3672ZM75.6814 47.614C75.7337 47.6384 75.7798 47.6744 75.816 47.7193C75.8523 47.7641 75.8779 47.8167 75.8907 47.873C76.3429 49.7983 76.3429 51.8022 75.8907 53.7275C75.8772 53.7846 75.8511 53.8379 75.8143 53.8835C75.7775 53.9292 75.7309 53.966 75.678 53.9912C75.6251 54.0165 75.5672 54.0295 75.5085 54.0294C75.4499 54.0293 75.392 54.016 75.3392 53.9905L72.0892 52.3803C72.4007 51.9117 72.5668 51.3616 72.5668 50.7989C72.5668 50.2363 72.4007 49.6861 72.0892 49.2175L75.3311 47.614C75.3857 47.5877 75.4456 47.574 75.5063 47.574C75.5669 47.574 75.6268 47.5877 75.6814 47.614ZM70.6548 49.8952C70.7783 50.0183 70.8761 50.1647 70.9425 50.326C71.0088 50.4872 71.0424 50.6601 71.0412 50.8345C71.041 51.1865 70.9016 51.5241 70.6535 51.7738C70.5961 51.8252 70.5346 51.8719 70.4696 51.9133C70.4268 51.9347 70.3859 51.9598 70.3475 51.9885C70.1543 52.093 69.9379 52.1474 69.7182 52.1468C69.4561 52.1467 69.2 52.0688 68.9822 51.9229C68.7645 51.777 68.595 51.5697 68.4953 51.3274C68.3955 51.085 68.37 50.8185 68.4219 50.5616C68.4738 50.3047 68.6009 50.069 68.7869 49.8844C68.9093 49.7619 69.0547 49.6648 69.2147 49.5987C69.3748 49.5326 69.5464 49.4988 69.7195 49.4993C69.8934 49.4994 70.0655 49.5338 70.226 49.6005C70.3865 49.6673 70.5322 49.7652 70.6548 49.8885V49.8952ZM66.8668 50.8076C66.8671 51.3525 67.0241 51.8859 67.319 52.3441L63.9684 53.9905C63.916 54.0171 63.8584 54.0314 63.7997 54.0324C63.7411 54.0335 63.683 54.0212 63.6297 53.9965C63.5765 53.9719 63.5296 53.9354 63.4925 53.89C63.4554 53.8446 63.4291 53.7913 63.4155 53.7342C62.962 51.8082 62.962 49.8031 63.4155 47.877C63.4289 47.8208 63.4547 47.7683 63.4912 47.7234C63.5277 47.6786 63.5738 47.6426 63.6262 47.6181C63.6801 47.5925 63.739 47.5793 63.7986 47.5793C63.8583 47.5793 63.9171 47.5925 63.971 47.6181L67.3109 49.2793C67.021 49.7339 66.8669 50.2618 66.8668 50.8009V50.8076Z" fill="white"/>
<defs>
<filter id="filter0_f_401_168" x="0" y="0" width="140" height="140" filterUnits="userSpaceOnUse" color-interpolation-filters="sRGB">
<feFlood flood-opacity="0" result="BackgroundImageFix"/>
<feBlend mode="normal" in="SourceGraphic" in2="BackgroundImageFix" result="shape"/>
<feGaussianBlur stdDeviation="10" result="effect1_foregroundBlur_401_168"/>
</filter>
</defs>
</svg>
