<svg width="140" height="140" viewBox="0 0 140 140" fill="none" xmlns="http://www.w3.org/2000/svg">
<g filter="url(#filter0_f_401_180)">
<circle cx="70" cy="70" r="50" fill="#FF6839" fill-opacity="0.5"/>
</g>
<circle cx="70" cy="70" r="50" fill="#FF6839"/>
<g clip-path="url(#clip0_401_180)">
<path d="M85.056 55.8755C85.0369 55.9778 85.0382 56.0828 85.0598 56.1846C85.0814 56.2865 85.1228 56.383 85.1818 56.4688C85.2407 56.5545 85.316 56.6279 85.4033 56.6845C85.4906 56.7411 85.5882 56.78 85.6905 56.7989C85.8302 56.8156 85.9708 56.8223 86.1114 56.8187C86.894 56.8249 87.6655 56.6329 88.354 56.2607C88.7658 56.0288 89.1166 55.7021 89.3772 55.3078C89.6378 54.9135 89.8007 54.4628 89.8526 53.993C89.9489 53.2938 90.3592 52.3836 91.0187 52.0393C91.2613 51.9299 91.5273 51.8828 91.7926 51.9022C92.058 51.9215 92.3143 52.0067 92.5385 52.1501C92.5424 52.1531 92.5469 52.1553 92.5517 52.1567C92.6495 52.219 92.7598 52.259 92.8748 52.2739C92.9898 52.2889 93.1067 52.2783 93.2172 52.2431C93.3277 52.2079 93.4291 52.1488 93.5143 52.07C93.5994 51.9912 93.6662 51.8947 93.7099 51.7873C93.7491 51.691 93.7689 51.5879 93.7682 51.4839C93.7676 51.3799 93.7464 51.2771 93.706 51.1813C93.6655 51.0855 93.6066 50.9986 93.5326 50.9256C93.4586 50.8525 93.3709 50.7948 93.2746 50.7557C91.9409 50.0697 90.9211 50.3111 90.3011 50.6343C89.1257 51.2451 88.4437 52.6527 88.2893 53.7766C88.0677 55.4019 85.928 55.2357 85.8356 55.2277C85.6504 55.2274 85.471 55.2921 85.3285 55.4104C85.1861 55.5288 85.0897 55.6933 85.056 55.8755Z" fill="white"/>
<path d="M90.7285 66.2799L90.714 66.272C90.3353 66.0502 89.9112 65.9171 89.4736 65.8828C89.0361 65.8485 88.5964 65.9139 88.1878 66.0741H88.1812C87.5308 66.3182 87.1364 65.4488 87.0928 65.3499C86.9979 65.1807 86.8441 65.0522 86.6606 64.989C86.4772 64.9257 86.2769 64.9321 86.0978 65.0068C85.9187 65.0815 85.7733 65.2194 85.6892 65.3943C85.6052 65.5692 85.5882 65.7689 85.6417 65.9554V65.9646C85.9887 66.7825 87.0823 68.169 88.7418 67.5477C88.9195 67.4752 89.1105 67.4414 89.3023 67.4484C89.494 67.4555 89.6821 67.5032 89.8539 67.5886C89.9186 67.6334 90.0689 67.7587 90.0782 68.1796C90.0827 68.3865 90.168 68.5835 90.316 68.7282C90.4639 68.8729 90.6627 68.954 90.8697 68.9539H90.8802C91.0867 68.9488 91.283 68.8631 91.4272 68.7152C91.5714 68.5673 91.652 68.369 91.652 68.1624C91.6685 67.7963 91.5926 67.432 91.4312 67.103C91.2698 66.774 91.0282 66.4909 90.7285 66.2799Z" fill="white"/>
<path d="M94.9486 60.5309C94.7744 60.1296 94.5017 59.7789 94.1558 59.5111C93.8099 59.2434 93.402 59.0673 92.9698 58.9993C91.8063 58.8357 90.6995 59.5151 90.1059 60.1457C89.3434 60.957 88.2392 60.0481 88.1205 59.9452C88.089 59.9122 88.0546 59.8821 88.0176 59.8555C87.8481 59.735 87.638 59.6861 87.4327 59.7193C87.2274 59.7525 87.0434 59.8652 86.9205 60.033C86.7976 60.2007 86.7457 60.4101 86.776 60.6159C86.8063 60.8216 86.9163 61.0072 87.0823 61.1324C87.7252 61.6908 88.5376 62.0162 89.3882 62.0559H89.4001C89.7518 62.0567 90.0996 61.9829 90.4207 61.8394C90.7418 61.6959 91.0288 61.486 91.2628 61.2235C91.4511 61.013 91.6822 60.8452 91.9407 60.7314C92.1992 60.6176 92.479 60.5605 92.7614 60.5639C92.935 60.6014 93.0967 60.6812 93.232 60.7963C93.3674 60.9114 93.4722 61.0581 93.5371 61.2235C93.5394 61.2308 93.5425 61.2379 93.5463 61.2446C93.6532 61.4075 93.8165 61.5253 94.0049 61.5753C94.1932 61.6253 94.3934 61.6041 94.5671 61.5157C94.7408 61.4273 94.8757 61.278 94.9461 61.0963C95.0165 60.9145 95.0174 60.7132 94.9486 60.5309Z" fill="white"/>
<path d="M74.5737 48.2044C74.6642 48.6352 74.8524 49.0395 75.1239 49.386C75.3954 49.7325 75.7429 50.012 76.1396 50.2029C76.7557 50.5156 76.3836 51.3902 76.3401 51.4931C76.2939 51.5937 76.2701 51.703 76.2702 51.8137C76.2677 51.9929 76.3267 52.1675 76.4373 52.3085C76.548 52.4495 76.7036 52.5483 76.8783 52.5884C77.053 52.6285 77.2361 52.6076 77.3972 52.529C77.5583 52.4504 77.6876 52.319 77.7635 52.1567V52.1501C78.1342 51.3401 78.4231 49.5974 76.8401 48.7927C76.6671 48.711 76.5134 48.5935 76.3892 48.448C76.2651 48.3024 76.1732 48.1322 76.1198 47.9484C76.1093 47.8667 76.0987 47.6714 76.3968 47.3865C76.4787 47.3167 76.5454 47.2311 76.5931 47.1347C76.6407 47.0383 76.6682 46.9332 76.6739 46.8258C76.6787 46.7192 76.6619 46.6127 76.6245 46.5127C76.5871 46.4127 76.5298 46.3213 76.4562 46.2441C76.3047 46.09 76.0984 46.0022 75.8824 46C75.6743 46.004 75.4762 46.0898 75.3309 46.2388C75.0518 46.4743 74.8363 46.7761 74.704 47.1165C74.5717 47.4569 74.5269 47.825 74.5737 48.1872V48.2044Z" fill="white"/>
<path d="M81.9836 53.6513C82.1091 53.6504 82.2325 53.6196 82.3437 53.5616C83.3028 53.0656 84.8621 51.6237 83.9624 49.7109C83.836 49.4584 83.765 49.1818 83.7543 48.8997C83.7436 48.6176 83.7934 48.3364 83.9004 48.0751C83.9992 47.927 84.1333 47.8059 84.2906 47.7225C84.4479 47.6392 84.6234 47.5962 84.8014 47.5975H84.8212C85.0154 47.5616 85.1892 47.4544 85.3084 47.2969C85.4276 47.1394 85.4836 46.943 85.4654 46.7464C85.4473 46.5497 85.3562 46.3669 85.2101 46.2339C85.0641 46.101 84.8736 46.0274 84.6761 46.0277C84.2397 46.0432 83.8143 46.1685 83.4392 46.3919C83.064 46.6153 82.7512 46.9297 82.5298 47.306C81.9493 48.3297 82.1749 49.6067 82.5429 50.3903C82.6208 50.5604 82.9545 51.4456 81.6195 52.1646C81.466 52.2481 81.3444 52.38 81.2737 52.5399C81.2031 52.6997 81.1873 52.8784 81.2289 53.0482C81.2704 53.2179 81.367 53.3692 81.5035 53.4783C81.6401 53.5874 81.8089 53.6482 81.9836 53.6513Z" fill="white"/>
<path d="M79.2991 53.7595C78.2903 53.5511 77.2493 53.5533 76.2414 53.766C75.2335 53.9787 74.2804 54.3973 73.4418 54.9956C71.4631 56.419 70.4183 58.2817 70.322 60.5362L68.0859 62.0941C68.0543 59.8937 68.2086 57.6709 68.3181 56.0259L68.3287 55.7158C68.421 54.299 67.8788 49.0737 65.937 47.2941C65.6786 47.0422 65.3658 46.8529 65.0227 46.7408C64.6797 46.6288 64.3155 46.5969 63.9582 46.6477C63.737 46.6812 63.5249 46.7591 63.3347 46.8767C63.1445 46.9944 62.98 47.1494 62.8514 47.3324C62.0599 48.4392 62.3554 50.6027 62.7933 53.1091C62.9175 53.9838 62.995 54.8645 63.0255 55.7475C63.0862 58.4388 62.7551 61.1247 62.0427 63.7207C61.4662 63.3724 60.5507 62.945 59.6827 63.0769C59.239 63.1181 58.813 63.2707 58.444 63.5204C58.075 63.7702 57.7751 64.109 57.572 64.5056C57.1384 64.3246 56.6709 64.2391 56.2013 64.2548C55.7317 64.2705 55.271 64.3871 54.8505 64.5966C54.5443 64.7445 54.2779 64.9634 54.0735 65.2351C53.0181 63.8843 51.8915 62.2261 51.7596 61.391C51.6277 60.6127 50.9167 59.403 50.0196 58.4505C49.3666 57.7593 48.0527 56.6116 46.5831 56.6855C46.3019 56.6692 46.0216 56.7294 45.7718 56.8596C45.5154 56.9957 45.3014 57.1997 45.1531 57.4493C44.6663 58.3898 45.4169 59.5784 46.3747 61.085C46.9564 62.0203 47.6213 63.0796 47.8258 63.8922V63.908C48.1807 64.92 48.5947 65.9102 49.0658 66.8736C49.7373 68.3656 50.5737 70.2204 51.2227 71.9353C51.4087 72.4049 51.5934 72.8812 51.8045 73.3864L51.3322 73.7149C51.2545 73.7493 51.1831 73.7966 51.1211 73.8547L49.7083 74.8362C49.3631 75.0752 49.1096 75.4248 48.9897 75.8272C48.8698 76.2296 48.8906 76.6608 49.0487 77.0498C49.5098 78.1865 50.1666 79.2335 50.9892 80.1433C51.1615 80.3351 51.3722 80.4885 51.6077 80.5935C51.8432 80.6985 52.0981 80.7528 52.3559 80.7528C52.6761 80.7519 52.9908 80.6693 53.2701 80.5127L54.7384 79.6842C55.0022 80.2462 55.3425 80.9573 55.6882 81.725C57.1709 85.0032 57.8793 89.2088 57.7989 94.2217C57.7967 94.3254 57.8152 94.4285 57.8533 94.525C57.8913 94.6215 57.9482 94.7094 58.0205 94.7837C58.1703 94.9357 58.3743 95.022 58.5878 95.0238C58.7943 95.0239 58.9927 94.9432 59.1406 94.799C59.2884 94.6548 59.3741 94.4585 59.3793 94.2521C59.4663 88.9951 58.7104 84.5679 57.1366 81.0799C56.5179 79.7106 55.923 78.4825 55.3478 77.2952C54.3874 75.3164 53.4864 73.4431 52.6949 71.3773C52.0235 69.6096 51.1765 67.731 50.4958 66.2206L50.4602 66.1427C49.9114 64.9198 49.4365 63.8671 49.3455 63.5044C49.0817 62.449 48.3746 61.3303 47.6952 60.2459C47.6147 60.114 47.525 59.9821 47.4314 59.8357C47.1319 59.3753 46.5831 58.5323 46.5752 58.2685C46.6032 58.2608 46.6319 58.2564 46.6609 58.2553C48.1477 58.1629 50.0486 60.6958 50.2069 61.6469C50.4826 63.3342 52.7833 66.1744 53.5616 67.0978C53.5673 67.452 53.603 67.8051 53.6685 68.1532C53.7023 68.3344 53.7983 68.4981 53.9399 68.6161C54.0815 68.7341 54.2598 68.799 54.4442 68.7996C54.4915 68.7998 54.5388 68.7954 54.5853 68.7864C54.7904 68.7482 54.9721 68.6306 55.0909 68.4592C55.2097 68.2877 55.2561 68.0763 55.2199 67.8709C55.0879 67.1559 55.0418 66.2522 55.5457 66.0082C55.5853 65.9884 56.5113 65.5425 57.1578 66.0702C57.134 66.3076 57.1195 66.5451 57.1195 66.7799C57.1352 66.9768 57.224 67.1607 57.3684 67.2955C57.5128 67.4302 57.7024 67.5061 57.8999 67.5083C58.0974 67.5104 58.2886 67.4387 58.4358 67.3071C58.5831 67.1755 58.6759 66.9936 58.6959 66.7971C58.7118 64.8381 59.4215 64.7061 59.899 64.6336C60.4854 64.652 61.0493 64.8634 61.5032 65.2351C61.6666 65.3558 61.8567 65.4354 62.0574 65.4671C62.2581 65.4988 62.4635 65.4817 62.6561 65.4172C62.8472 65.3463 63.0186 65.231 63.1563 65.0807C63.2939 64.9305 63.3938 64.7496 63.4477 64.5531C64.2835 61.6912 64.6737 58.7176 64.6046 55.737C64.5732 54.7656 64.4882 53.7967 64.35 52.8347C64.1099 51.4667 63.6627 48.9022 64.1402 48.2426C64.1485 48.2291 64.1597 48.2174 64.1729 48.2086C64.1861 48.1997 64.201 48.1938 64.2167 48.1912C64.3393 48.1846 64.4617 48.2048 64.5756 48.2503C64.6896 48.2959 64.7922 48.3658 64.8763 48.455C65.4568 48.9827 65.9805 50.2122 66.3538 51.9087C66.6968 53.4627 66.805 54.9151 66.7588 55.6024L66.739 55.9124C66.4528 60.2196 65.9752 67.4276 68.3986 69.9644C69.7837 71.4155 72.4551 71.1517 75.2927 70.876C77.9799 70.6122 80.7568 70.3483 81.977 71.5923C82.0873 71.702 82.1588 71.8448 82.1804 71.9989C82.2021 72.153 82.1728 72.3099 82.0971 72.4458C82.0362 72.5754 81.9348 72.6817 81.8082 72.7486C81.6815 72.8154 81.5366 72.8393 81.3953 72.8165C76.4536 72.0936 70.8087 75.7333 68.0107 79.5246C66.2549 81.8992 67.119 85.556 68.1202 89.7853C68.4711 91.2641 68.8326 92.7944 69.1096 94.3695C69.1423 94.5514 69.2376 94.7162 69.379 94.8353C69.5205 94.9543 69.6991 95.0201 69.884 95.0212C69.9304 95.0211 69.9768 95.0172 70.0225 95.0093C70.2282 94.9726 70.4111 94.856 70.5312 94.685C70.6513 94.514 70.6989 94.3024 70.6636 94.0964C70.376 92.4566 70.0106 90.9172 69.6558 89.4225C68.7455 85.5757 67.954 82.2527 69.2838 80.4652C72.5461 76.0459 77.8888 73.9009 81.171 74.3798H81.1815C81.6483 74.4467 82.1242 74.3648 82.5417 74.1457C82.9592 73.9267 83.2971 73.5816 83.5073 73.1595C83.7324 72.7299 83.8154 72.2399 83.7443 71.76C83.6731 71.2802 83.4516 70.8353 83.1115 70.4895C81.3636 68.702 78.2015 69.0107 75.1383 69.3088C74.3679 69.3827 73.5777 69.4605 72.835 69.4948L75.1383 68.1914C75.9919 68.5698 76.9143 68.7683 77.8479 68.7745H77.8717C79.139 68.7549 80.3811 68.4169 81.4836 67.7917C82.3844 67.2971 83.1732 66.6217 83.8006 65.8078C84.4281 64.994 84.8806 64.0593 85.1299 63.0624C85.4076 62.0604 85.4822 61.013 85.3492 59.9817C85.2162 58.9505 84.8784 57.9562 84.3555 57.0575C83.7738 56.1997 83.027 55.4663 82.1589 54.9C81.2908 54.3338 80.3186 53.9461 79.2991 53.7595ZM83.597 62.6614C83.2746 63.9365 82.5395 65.0692 81.5061 65.8829C78.6789 63.0225 76.513 59.5773 75.1608 55.7897C76.3469 55.2084 77.6926 55.0377 78.9864 55.3043C80.6188 55.6038 82.0665 56.5365 83.0139 57.8991C83.8287 59.3475 84.0383 61.0592 83.597 62.6614ZM75.5684 66.6559C73.98 64.955 72.7332 62.9648 71.8958 60.7934C71.9009 60.0136 72.075 59.2442 72.4061 58.5382C72.7373 57.8322 73.2176 57.2064 73.8139 56.7039C75.1963 60.4368 77.3396 63.8415 80.1077 66.7021C79.393 67.0242 78.6166 67.1867 77.8327 67.1783C77.0487 67.1699 76.276 66.9907 75.5684 66.6533V66.6559ZM73.8534 67.1071L70.0832 69.2296C69.8807 69.1483 69.6961 69.0282 69.5397 68.8761C68.7877 68.0846 68.3207 66.4316 68.1519 63.9542L70.7454 62.1535C71.5297 63.9495 72.5768 65.619 73.8521 67.1071H73.8534ZM53.2292 78.7225L52.5076 79.1315C52.4535 79.1619 52.3909 79.1735 52.3295 79.1644C52.2681 79.1554 52.2115 79.1261 52.1686 79.0814C51.4695 78.3086 50.9114 77.4191 50.5196 76.4535C50.497 76.3951 50.4945 76.3307 50.5127 76.2707C50.5309 76.2107 50.5686 76.1585 50.6198 76.1224L51.3005 75.6502C51.7804 76.768 52.431 77.8045 53.2292 78.7225Z" fill="white"/>
</g>
<defs>
<filter id="filter0_f_401_180" x="0" y="0" width="140" height="140" filterUnits="userSpaceOnUse" color-interpolation-filters="sRGB">
<feFlood flood-opacity="0" result="BackgroundImageFix"/>
<feBlend mode="normal" in="SourceGraphic" in2="BackgroundImageFix" result="shape"/>
<feGaussianBlur stdDeviation="10" result="effect1_foregroundBlur_401_180"/>
</filter>
<clipPath id="clip0_401_180">
<rect width="50" height="50" fill="white" transform="translate(45 45)"/>
</clipPath>
</defs>
</svg>
